<?xml version="1.0" encoding="utf-8" standalone="no"?>
<!DOCTYPE svg PUBLIC "-//W3C//DTD SVG 1.1//EN"
  "http://www.w3.org/Graphics/SVG/1.1/DTD/svg11.dtd">
<!-- Created with matplotlib (https://matplotlib.org/) -->
<svg height="231.84pt" version="1.1" viewBox="0 0 431.712 231.84" width="431.712pt" xmlns="http://www.w3.org/2000/svg" xmlns:xlink="http://www.w3.org/1999/xlink">
 <defs>
  <style type="text/css">
*{stroke-linecap:butt;stroke-linejoin:round;}
  </style>
 </defs>
 <g id="figure_1">
  <g id="patch_1">
   <path d="M 0 231.84 
L 431.712 231.84 
L 431.712 0 
L 0 0 
z
" style="fill:none;opacity:0;"/>
  </g>
  <g id="axes_1">
   <g id="line2d_1">
    <defs>
     <path d="M 5 -0.00096 
Q 5 1.866116 3.686131 3.178064 
Q 2.372263 4.490012 0.505186 4.490012 
Q -1.350365 4.490012 -2.666154 3.178064 
Q -3.980023 1.866116 -3.980023 -0.00096 
Q -3.980023 -1.165002 -3.376873 -2.248367 
Q -2.773723 -3.331733 -1.694199 -3.909912 
Q -0.612755 -4.490012 0.505186 -4.490012 
Q 1.638494 -4.490012 2.718018 -3.909912 
Q 3.799462 -3.331733 4.398771 -2.25413 
Q 5 -1.176527 5 -0.00096 
z
M -3.542067 -0.00096 
Q -3.542067 1.679793 -2.358817 2.861122 
Q -1.175567 4.04053 0.505186 4.04053 
Q 2.185939 4.04053 3.367269 2.861122 
Q 4.550519 1.679793 4.550519 -0.00096 
Q 4.550519 -1.063196 4.008836 -2.029389 
Q 3.469074 -2.995582 2.497119 -3.518056 
Q 1.525163 -4.04053 0.503265 -4.04053 
Q -0.516711 -4.04053 -1.488667 -3.518056 
Q -2.460622 -2.995582 -3.002305 -2.029389 
Q -3.542067 -1.063196 -3.542067 -0.00096 
z
M 1.632731 -0.00096 
Q 1.632731 0.46773 1.306185 0.796197 
Q 0.979639 1.122743 0.510949 1.122743 
Q 0.048022 1.122743 -0.282367 0.796197 
Q -0.612755 0.46773 -0.612755 -0.00096 
Q -0.612755 -0.294852 -0.462927 -0.563773 
Q -0.311179 -0.834614 -0.042259 -0.978678 
Q 0.228582 -1.122743 0.510949 -1.122743 
Q 0.793315 -1.122743 1.062236 -0.978678 
Q 1.333077 -0.834614 1.482904 -0.563773 
Q 1.632731 -0.294852 1.632731 -0.00096 
z
" id="mecf89b8696"/>
    </defs>
    <g clip-path="url(#pbc2d55b120)">
     <use style="fill:#ffd700;" x="115.92" xlink:href="#mecf89b8696" y="115.92"/>
    </g>
   </g>
   <g id="line2d_2">
    <defs>
     <path d="M 1.945069 -2.72216 
Q 2.179415 -2.570304 2.391264 -2.358455 
Q 3.169291 -1.591676 3.169291 -0.48369 
Q 3.169291 0.616798 2.396888 1.344207 
Q 1.763217 1.929134 0.925197 2.011624 
L 0.925197 3.235846 
L 2.190664 3.224597 
L 2.190664 3.811399 
L 0.9027 3.817023 
L 0.908324 5 
L 0.152793 5 
L 0.147169 3.811399 
L -1.035808 3.811399 
L -1.035808 3.235846 
L 0.147169 3.235846 
L 0.135921 2.011624 
Q -0.726472 1.936633 -1.363892 1.344207 
Q -2.143795 0.616798 -2.143795 -0.48369 
Q -2.143795 -1.591676 -1.363892 -2.358455 
Q -1.153918 -2.570304 -0.919573 -2.72216 
Q -1.153918 -2.868391 -1.363892 -3.085864 
Q -2.143795 -3.852643 -2.143795 -4.953131 
L -2.143795 -5 
L -1.311399 -5 
L -1.311399 -4.941882 
Q -1.311399 -4.180727 -0.778965 -3.653918 
Q -0.280277 -3.166479 0.404012 -3.125234 
L 0.627109 -3.125234 
Q 1.307649 -3.166479 1.804462 -3.653918 
Q 2.33877 -4.180727 2.33877 -4.941882 
L 2.33877 -5 
L 3.169291 -5 
L 3.169291 -4.953131 
Q 3.169291 -3.852643 2.391264 -3.085864 
Q 2.179415 -2.868391 1.945069 -2.72216 
z
M 0.627109 -2.311586 
L 0.404012 -2.311586 
Q -0.280277 -2.275966 -0.778965 -1.784777 
Q -1.311399 -1.263592 -1.311399 -0.500562 
Q -1.311399 0.260592 -0.775216 0.75928 
Q -0.239033 1.256093 0.522122 1.256093 
Q 1.266404 1.256093 1.802587 0.75928 
Q 2.33877 0.260592 2.33877 -0.500562 
Q 2.33877 -1.263592 1.804462 -1.784777 
Q 1.307649 -2.275966 0.627109 -2.311586 
z
" id="m4bec8d6c3a"/>
    </defs>
    <g clip-path="url(#pbc2d55b120)">
     <use style="fill:#a52a2a;" x="126.792" xlink:href="#m4bec8d6c3a" y="115.92"/>
    </g>
   </g>
   <g id="line2d_3">
    <defs>
     <path d="M 0.498724 -3.980671 
Q -0.436725 -3.980671 -1.095004 -3.329686 
Q -1.753282 -2.680525 -1.753282 -1.7469 
Q -1.753282 -0.818745 -1.095004 -0.202407 
Q -0.436725 0.412108 0.498724 0.412108 
Q 1.415937 0.412108 2.08151 -0.202407 
Q 2.748906 -0.818745 2.748906 -1.7469 
Q 2.748906 -2.680525 2.08151 -3.329686 
Q 1.415937 -3.980671 0.498724 -3.980671 
z
M -1.815281 0.503282 
Q -2.778082 -0.390226 -2.778082 -1.7469 
Q -2.778082 -3.109044 -1.820751 -4.053611 
Q -0.863421 -5 0.498724 -5 
Q 1.842633 -5 2.809081 -4.053611 
Q 3.775529 -3.109044 3.775529 -1.7469 
Q 3.775529 -0.384756 2.812728 0.503282 
Q 2.037746 1.221736 1.011123 1.323851 
L 1.011123 2.828228 
L 2.561087 2.828228 
L 2.561087 3.53574 
L 1.011123 3.53574 
L 1.011123 5 
L -0.013676 5 
L -0.013676 3.53574 
L -1.56364 3.53574 
L -1.56364 2.828228 
L -0.013676 2.828228 
L -0.013676 1.318381 
Q -1.04577 1.221736 -1.815281 0.503282 
z
" id="m3a5e73fadb"/>
    </defs>
    <g clip-path="url(#pbc2d55b120)">
     <use style="fill:#008000;" x="137.664" xlink:href="#m3a5e73fadb" y="115.92"/>
    </g>
   </g>
   <g id="line2d_4">
    <defs>
     <path d="M 1.919213 -3.162411 
Q 1.312265 -3.417748 0.611134 -3.417748 
Q -0.087903 -3.417748 -0.696944 -3.162411 
Q -1.297614 -2.907074 -1.79573 -2.411051 
Q -2.298033 -1.906656 -2.547091 -1.303893 
Q -2.796149 -0.703223 -2.796149 0.010465 
Q -2.796149 0.703223 -2.547091 1.305986 
Q -2.298033 1.906656 -1.79573 2.411051 
Q -1.297614 2.907074 -0.696944 3.162411 
Q -0.087903 3.417748 0.611134 3.417748 
Q 1.312265 3.417748 1.919213 3.162411 
Q 2.521976 2.907074 3.017999 2.411051 
Q 3.522394 1.906656 3.76936 1.305986 
Q 4.018418 0.703223 4.018418 0.010465 
Q 4.018418 -0.703223 3.76936 -1.303893 
Q 3.522394 -1.906656 3.017999 -2.411051 
Q 2.521976 -2.907074 1.919213 -3.162411 
z
M -1.848054 -3.744244 
Q -0.290917 -4.39933 0.611134 -4.39933 
Q 1.515278 -4.39933 2.291754 -4.070741 
Q 3.070322 -3.744244 3.712851 -3.103809 
Q 4.359565 -2.455002 4.679782 -1.678527 
Q 5 -0.906237 5 0.010465 
Q 5 0.906237 4.679782 1.684805 
Q 4.359565 2.455002 3.712851 3.103809 
Q 3.070322 3.744244 2.291754 4.072834 
Q 1.515278 4.39933 0.611134 4.39933 
Q -0.290917 4.39933 -1.069485 4.072834 
Q -1.848054 3.744244 -2.488489 3.103809 
Q -3.135203 2.455002 -3.455421 1.684805 
Q -3.777731 0.906237 -3.777731 0.010465 
Q -3.777731 -0.906237 -3.455421 -1.678527 
Q -3.135203 -2.455002 -2.488489 -3.103809 
Q -1.848054 -3.744244 -0.290917 -4.39933 
z
M 1.167853 -2.881959 
L 1.167853 -0.546254 
L 3.495186 -0.546254 
L 3.495186 0.56509 
L 1.167853 0.56509 
L 1.167853 2.900795 
L 0.056509 2.900795 
L 0.056509 0.56509 
L -2.272918 0.56509 
L -2.272918 -0.546254 
L 0.056509 -0.546254 
L 0.056509 -2.881959 
z
" id="m328b8ec06a"/>
    </defs>
    <g clip-path="url(#pbc2d55b120)">
     <use style="fill:#0000ff;" x="148.536" xlink:href="#m328b8ec06a" y="115.92"/>
    </g>
   </g>
   <g id="line2d_5">
    <defs>
     <path d="M 0.363793 -4.484546 
Q 2.73277 -4.484546 4.364561 -2.223075 
Q 5 -1.184488 5 0.00384 
Q 5 2.355538 2.625264 3.897101 
Q 1.552121 4.484546 0.496256 4.484546 
L 0.200614 4.484546 
Q -0.07967 4.484546 -0.567287 4.394318 
L -0.567287 4.357842 
Q 1.09522 3.883663 1.845844 2.822039 
Q 2.775005 1.610674 2.775005 0.00384 
Q 2.775005 -2.395853 0.770781 -3.739681 
Q -0.045114 -4.21962 -0.601843 -4.315608 
L -0.601843 -4.334805 
Q -0.601843 -4.400077 0.290843 -4.484546 
z
M 0.530812 -4.112114 
L 0.530812 -4.094836 
Q 3.272221 -2.912267 3.272221 0.038395 
Q 3.272221 2.451526 1.25072 3.843348 
L 0.993473 3.98733 
L 0.993473 4.010367 
L 1.029948 4.010367 
Q 1.544442 4.010367 2.492801 3.51315 
Q 3.890382 2.601267 4.383759 1.136495 
Q 4.556537 0.579766 4.556537 0.021117 
L 4.556537 -0.032636 
Q 4.556537 -1.935112 2.475523 -3.499712 
Q 1.496448 -4.112114 0.55001 -4.112114 
z
" id="m32fd447ef9"/>
    </defs>
    <g clip-path="url(#pbc2d55b120)">
     <use style="fill:#ffffff;" x="148.536" xlink:href="#m32fd447ef9" y="110.484"/>
    </g>
   </g>
   <g id="line2d_6">
    <defs>
     <path d="M -0.667795 -1.147479 
Q -1.630926 -1.147479 -2.310008 -0.475922 
Q -2.98909 0.193755 -2.98909 1.158766 
Q -2.98909 2.121896 -2.310008 2.757713 
Q -1.630926 3.391648 -0.667795 3.391648 
Q 0.278405 3.391648 0.966892 2.757713 
Q 1.65538 2.121896 1.65538 1.158766 
Q 1.65538 0.193755 0.966892 -0.475922 
Q 0.278405 -1.147479 -0.667795 -1.147479 
z
M 1.755079 3.455606 
Q 0.767494 4.420617 -0.667795 4.420617 
Q -2.048533 4.420617 -3.049285 3.489466 
Q -4.048157 2.556433 -4.048157 1.156885 
Q -4.048157 -0.242664 -3.034236 -1.243416 
Q -2.020316 -2.24605 -0.667795 -2.193378 
Q 0.673439 -2.146351 1.331828 -1.540632 
L 3.453725 -3.587284 
L 1.271633 -3.587284 
L 2.095561 -4.420617 
L 5 -4.420617 
L 5 -1.529345 
L 4.159142 -0.688488 
L 4.159142 -2.881866 
L 2.054176 -0.835214 
Q 2.712566 0.022573 2.712566 1.156885 
Q 2.712566 2.520692 1.755079 3.455606 
z
" id="m9edc592c2e"/>
    </defs>
    <g clip-path="url(#pbc2d55b120)">
     <use style="fill:#ff0000;" x="159.408" xlink:href="#m9edc592c2e" y="115.92"/>
    </g>
   </g>
   <g id="line2d_7">
    <defs>
     <path d="M 0.224599 1.451337 
L 0.224599 1.442781 
Q 1.039572 1.442781 1.606417 0.871658 
Q 2.175401 0.300535 2.175401 -0.508021 
Q 2.175401 -1.316578 1.610695 -1.887701 
Q 1.045989 -2.460963 0.224599 -2.460963 
Q -0.583957 -2.460963 -1.157219 -1.887701 
Q -1.728342 -1.316578 -1.728342 -0.508021 
L -1.728342 -0.495187 
L -2.731551 -0.495187 
Q -2.731551 -1.731551 -1.869519 -2.6 
Q -1.005348 -3.468449 0.224599 -3.468449 
Q 1.473797 -3.468449 2.335829 -2.6 
Q 3.197861 -1.731551 3.197861 -0.495187 
Q 3.197861 0.627807 2.470588 1.451337 
L 3.987166 1.451337 
L 3.987166 -5 
L 4.996791 -5 
L 4.996791 5 
L 3.987166 5 
L 3.987166 2.458824 
L -2.731551 2.458824 
L -2.731551 1.451337 
z
" id="m95f96a41d2"/>
    </defs>
    <g clip-path="url(#pbc2d55b120)">
     <use style="fill:#ffa500;" x="170.28" xlink:href="#m95f96a41d2" y="115.92"/>
    </g>
   </g>
   <g id="line2d_8">
    <defs>
     <path d="M -0.929412 -2.788235 
L -1.637433 -2.788235 
L -1.637433 -3.797861 
L -0.929412 -3.797861 
L -0.929412 -5 
L 0.086631 -5 
L 0.086631 -3.797861 
L 1.278075 -3.797861 
L 1.278075 -2.788235 
L 0.086631 -2.788235 
L 0.086631 -0.2 
Q 0.828877 -0.929412 1.84492 -0.929412 
Q 3.034225 -0.929412 3.832086 -0.06738 
Q 4.632086 0.794652 4.632086 2.045989 
Q 4.632086 2.647059 4.163636 3.412834 
Q 3.697326 4.17861 3.697326 4.987166 
L 3.697326 5 
L 2.687701 5 
Q 2.687701 4.116578 3.158289 3.322995 
Q 3.631016 2.527273 3.631016 2.045989 
Q 3.631016 1.22246 3.11123 0.657754 
Q 2.593583 0.093048 1.851337 0.093048 
Q 1.117647 0.093048 0.602139 0.662032 
Q 0.086631 1.228877 0.086631 2.045989 
L 0.086631 5 
L -0.929412 5 
z
" id="m96ff067f94"/>
    </defs>
    <g clip-path="url(#pbc2d55b120)">
     <use style="fill:#808080;" x="181.152" xlink:href="#m96ff067f94" y="115.92"/>
    </g>
   </g>
   <g id="line2d_9">
    <defs>
     <path d="M 1.626312 2.716909 
Q 1.135997 2.218523 0.782889 2.218523 
Q 0.429782 2.218523 0.17958 2.468725 
Q -0.068604 2.716909 -0.068604 3.063963 
Q -0.068604 3.423123 0.17958 3.66929 
Q 0.429782 3.915456 0.782889 3.915456 
Q 1.129944 3.915456 1.378128 3.66929 
Q 1.626312 3.423123 1.626312 3.063963 
Q 1.626312 2.716909 1.135997 2.218523 
z
M 1.261098 1.494149 
Q 1.646489 1.607143 1.949153 1.909806 
Q 2.427361 2.390032 2.427361 3.072034 
Q 2.427361 3.752018 1.947135 4.234262 
Q 1.468927 4.716505 0.782889 4.716505 
Q 0.106941 4.716505 -0.375303 4.234262 
Q -0.857546 3.752018 -0.857546 3.072034 
Q -0.857546 2.390032 -0.37732 1.909806 
Q -0.08071 1.60109 0.308717 1.494149 
L 0.308717 -1.001816 
L -1.507264 -1.001816 
L -1.507264 1.752421 
L -3.436239 1.752421 
L -3.436239 0.80004 
L -2.459645 0.80004 
L -2.459645 -3.758071 
L -3.436239 -3.758071 
L -3.436239 -4.716505 
L -1.507264 -4.716505 
L -1.507264 -1.954197 
L 0.308717 -1.954197 
L 0.308717 -4.716505 
L 1.261098 -4.716505 
L 1.261098 -1.954197 
L 3.077078 -1.954197 
L 3.077078 -4.716505 
L 5 -4.716505 
L 5 -3.758071 
L 4.035513 -3.758071 
L 4.035513 0.80004 
L 5 0.80004 
L 5 1.752421 
L 3.077078 1.752421 
L 3.077078 -1.001816 
L 1.261098 -1.001816 
z
" id="m74c830a710"/>
    </defs>
    <g clip-path="url(#pbc2d55b120)">
     <use style="fill:#0000ff;" x="192.024" xlink:href="#m74c830a710" y="115.92"/>
    </g>
   </g>
   <g id="line2d_10">
    <defs>
     <path d="M 1.310443 3.562576 
L 1.310443 4.749086 
L 0.351483 4.749086 
L 0.351483 3.562576 
L -0.765949 3.562576 
L -0.765949 2.603616 
L 0.351483 2.603616 
L 0.351483 1.719829 
Q -0.694839 1.581674 -1.468915 0.805567 
Q -2.42178 -0.145266 -2.427875 -1.510565 
L -2.427875 -2.0449 
L -3.342137 -1.142828 
L -3.348232 -2.03271 
L -2.427875 -3.00386 
L -1.46282 -3.00386 
L -0.548557 -2.03271 
L -0.548557 -1.142828 
L -1.46282 -2.0449 
L -1.46282 -1.510565 
L -1.45063 -1.510565 
L -1.45063 -1.498375 
L -1.46282 -1.498375 
Q -1.456725 -0.539415 -0.796424 0.120886 
Q -0.300691 0.622714 0.351483 0.748679 
L 0.351483 -3.784031 
L -0.568874 -2.888054 
L -0.57497 -3.771841 
L 0.351483 -4.749086 
L 1.310443 -4.749086 
L 2.2308 -3.771841 
L 2.2308 -2.888054 
L 1.310443 -3.784031 
L 1.310443 0.742584 
Q 1.952458 0.616619 2.442097 0.120886 
Q 3.114588 -0.551605 3.114588 -1.50447 
L 3.114588 -1.510565 
L 3.120683 -1.510565 
L 3.120683 -2.075376 
L 2.20642 -1.175335 
L 2.200325 -2.063186 
L 3.120683 -3.034336 
L 4.085738 -3.034336 
L 5 -2.063186 
L 5 -1.175335 
L 4.085738 -2.075376 
L 4.085738 -1.510565 
L 4.091833 -1.510565 
L 4.091833 -1.486184 
Q 4.085738 -0.145266 3.132873 0.805567 
Q 2.358797 1.573547 1.310443 1.719829 
L 1.310443 2.603616 
L 2.42178 2.603616 
L 2.42178 3.562576 
z
" id="m1930a9f5e5"/>
    </defs>
    <g clip-path="url(#pbc2d55b120)">
     <use style="fill:#800080;" x="202.896" xlink:href="#m1930a9f5e5" y="115.92"/>
    </g>
   </g>
   <g id="line2d_11">
    <defs>
     <path d="M -1.145455 -5 
L 1.588235 -5 
Q 3.605348 -5 4.274866 -3.609626 
Q 4.48877 -3.094118 4.48877 -2.460963 
Q 4.48877 -0.681283 2.811765 -0.06738 
Q 2.416043 0.045989 2.054545 0.045989 
L -0.229947 0.045989 
L -0.229947 4.024599 
L 4.007487 4.024599 
L 4.060963 4.078075 
L 4.060963 4.946524 
L 4.007487 5 
L -1.145455 5 
L -1.19893 4.946524 
L -1.19893 -4.940107 
z
M -0.229947 -4.065241 
L -0.229947 -0.882353 
L 1.947594 -0.882353 
Q 2.818182 -0.882353 3.299465 -1.750802 
Q 3.406417 -1.926203 3.459893 -2.460963 
Q 3.459893 -3.55615 2.375401 -3.958289 
Q 2.129412 -4.065241 1.588235 -4.065241 
z
" id="mdf5d8ba5cc"/>
    </defs>
    <g clip-path="url(#pbc2d55b120)">
     <use x="213.768" xlink:href="#mdf5d8ba5cc" y="115.92"/>
    </g>
   </g>
   <g id="legend_1">
    <g id="patch_2">
     <path d="M 237.512 115.92 
L 422.512 115.92 
Q 424.512 115.92 424.512 113.92 
L 424.512 26.829375 
Q 424.512 24.829375 422.512 24.829375 
L 237.512 24.829375 
Q 235.512 24.829375 235.512 26.829375 
L 235.512 113.92 
Q 235.512 115.92 237.512 115.92 
z
" style="fill:#ffffff;opacity:0.8;stroke:#cccccc;stroke-linejoin:miter;"/>
    </g>
    <g id="line2d_12"/>
    <g id="line2d_13">
     <g>
      <use style="fill:#ffd700;" x="249.512" xlink:href="#mecf89b8696" y="32.929375"/>
     </g>
    </g>
    <g id="text_1">
     <!-- $☉$ Sun -->
     <defs>
      <path d="M 81.34375 36.53125 
Q 81.34375 21.34375 70.65625 10.671875 
Q 59.96875 0 44.78125 0 
Q 29.6875 0 18.984375 10.671875 
Q 8.296875 21.34375 8.296875 36.53125 
Q 8.296875 46 13.203125 54.8125 
Q 18.109375 63.625 26.890625 68.328125 
Q 35.6875 73.046875 44.78125 73.046875 
Q 54 73.046875 62.78125 68.328125 
Q 71.578125 63.625 76.453125 54.859375 
Q 81.34375 46.09375 81.34375 36.53125 
z
M 11.859375 36.53125 
Q 11.859375 22.859375 21.484375 13.25 
Q 31.109375 3.65625 44.78125 3.65625 
Q 58.453125 3.65625 68.0625 13.25 
Q 77.6875 22.859375 77.6875 36.53125 
Q 77.6875 45.171875 73.28125 53.03125 
Q 68.890625 60.890625 60.984375 65.140625 
Q 53.078125 69.390625 44.765625 69.390625 
Q 36.46875 69.390625 28.5625 65.140625 
Q 20.65625 60.890625 16.25 53.03125 
Q 11.859375 45.171875 11.859375 36.53125 
z
M 53.953125 36.53125 
Q 53.953125 32.71875 51.296875 30.046875 
Q 48.640625 27.390625 44.828125 27.390625 
Q 41.0625 27.390625 38.375 30.046875 
Q 35.6875 32.71875 35.6875 36.53125 
Q 35.6875 38.921875 36.90625 41.109375 
Q 38.140625 43.3125 40.328125 44.484375 
Q 42.53125 45.65625 44.828125 45.65625 
Q 47.125 45.65625 49.3125 44.484375 
Q 51.515625 43.3125 52.734375 41.109375 
Q 53.953125 38.921875 53.953125 36.53125 
z
" id="DejaVuSans-9737"/>
      <path id="DejaVuSans-32"/>
      <path d="M 53.515625 70.515625 
L 53.515625 60.890625 
Q 47.90625 63.578125 42.921875 64.890625 
Q 37.9375 66.21875 33.296875 66.21875 
Q 25.25 66.21875 20.875 63.09375 
Q 16.5 59.96875 16.5 54.203125 
Q 16.5 49.359375 19.40625 46.890625 
Q 22.3125 44.4375 30.421875 42.921875 
L 36.375 41.703125 
Q 47.40625 39.59375 52.65625 34.296875 
Q 57.90625 29 57.90625 20.125 
Q 57.90625 9.515625 50.796875 4.046875 
Q 43.703125 -1.421875 29.984375 -1.421875 
Q 24.8125 -1.421875 18.96875 -0.25 
Q 13.140625 0.921875 6.890625 3.21875 
L 6.890625 13.375 
Q 12.890625 10.015625 18.65625 8.296875 
Q 24.421875 6.59375 29.984375 6.59375 
Q 38.421875 6.59375 43.015625 9.90625 
Q 47.609375 13.234375 47.609375 19.390625 
Q 47.609375 24.75 44.3125 27.78125 
Q 41.015625 30.8125 33.5 32.328125 
L 27.484375 33.5 
Q 16.453125 35.6875 11.515625 40.375 
Q 6.59375 45.0625 6.59375 53.421875 
Q 6.59375 63.09375 13.40625 68.65625 
Q 20.21875 74.21875 32.171875 74.21875 
Q 37.3125 74.21875 42.625 73.28125 
Q 47.953125 72.359375 53.515625 70.515625 
z
" id="DejaVuSans-83"/>
      <path d="M 8.5 21.578125 
L 8.5 54.6875 
L 17.484375 54.6875 
L 17.484375 21.921875 
Q 17.484375 14.15625 20.5 10.265625 
Q 23.53125 6.390625 29.59375 6.390625 
Q 36.859375 6.390625 41.078125 11.03125 
Q 45.3125 15.671875 45.3125 23.6875 
L 45.3125 54.6875 
L 54.296875 54.6875 
L 54.296875 0 
L 45.3125 0 
L 45.3125 8.40625 
Q 42.046875 3.421875 37.71875 1 
Q 33.40625 -1.421875 27.6875 -1.421875 
Q 18.265625 -1.421875 13.375 4.4375 
Q 8.5 10.296875 8.5 21.578125 
z
M 31.109375 56 
z
" id="DejaVuSans-117"/>
      <path d="M 54.890625 33.015625 
L 54.890625 0 
L 45.90625 0 
L 45.90625 32.71875 
Q 45.90625 40.484375 42.875 44.328125 
Q 39.84375 48.1875 33.796875 48.1875 
Q 26.515625 48.1875 22.3125 43.546875 
Q 18.109375 38.921875 18.109375 30.90625 
L 18.109375 0 
L 9.078125 0 
L 9.078125 54.6875 
L 18.109375 54.6875 
L 18.109375 46.1875 
Q 21.34375 51.125 25.703125 53.5625 
Q 30.078125 56 35.796875 56 
Q 45.21875 56 50.046875 50.171875 
Q 54.890625 44.34375 54.890625 33.015625 
z
" id="DejaVuSans-110"/>
     </defs>
     <g transform="translate(267.512 36.429375)scale(0.1 -0.1)">
      <use transform="translate(0 0.78125)" xlink:href="#DejaVuSans-9737"/>
      <use transform="translate(89.648438 0.78125)" xlink:href="#DejaVuSans-32"/>
      <use transform="translate(121.435547 0.78125)" xlink:href="#DejaVuSans-83"/>
      <use transform="translate(184.912109 0.78125)" xlink:href="#DejaVuSans-117"/>
      <use transform="translate(248.291016 0.78125)" xlink:href="#DejaVuSans-110"/>
     </g>
    </g>
    <g id="line2d_14"/>
    <g id="line2d_15">
     <g>
      <use style="fill:#a52a2a;" x="249.512" xlink:href="#m4bec8d6c3a" y="47.6075"/>
     </g>
    </g>
    <g id="text_2">
     <!-- $☿$ Mercury -->
     <defs>
      <path d="M 42.625 54.203125 
Q 44.578125 52.9375 46.34375 51.171875 
Q 52.828125 44.78125 52.828125 35.546875 
Q 52.828125 26.375 46.390625 20.3125 
Q 41.109375 15.4375 34.125 14.75 
L 34.125 4.546875 
L 44.671875 4.640625 
L 44.671875 -0.25 
L 33.9375 -0.296875 
L 33.984375 -10.15625 
L 27.6875 -10.15625 
L 27.640625 -0.25 
L 17.78125 -0.25 
L 17.78125 4.546875 
L 27.640625 4.546875 
L 27.546875 14.75 
Q 20.359375 15.375 15.046875 20.3125 
Q 8.546875 26.375 8.546875 35.546875 
Q 8.546875 44.78125 15.046875 51.171875 
Q 16.796875 52.9375 18.75 54.203125 
Q 16.796875 55.421875 15.046875 57.234375 
Q 8.546875 63.625 8.546875 72.796875 
L 8.546875 73.1875 
L 15.484375 73.1875 
L 15.484375 72.703125 
Q 15.484375 66.359375 19.921875 61.96875 
Q 24.078125 57.90625 29.78125 57.5625 
L 31.640625 57.5625 
Q 37.3125 57.90625 41.453125 61.96875 
Q 45.90625 66.359375 45.90625 72.703125 
L 45.90625 73.1875 
L 52.828125 73.1875 
L 52.828125 72.796875 
Q 52.828125 63.625 46.34375 57.234375 
Q 44.578125 55.421875 42.625 54.203125 
z
M 31.640625 50.78125 
L 29.78125 50.78125 
Q 24.078125 50.484375 19.921875 46.390625 
Q 15.484375 42.046875 15.484375 35.6875 
Q 15.484375 29.34375 19.953125 25.1875 
Q 24.421875 21.046875 30.765625 21.046875 
Q 36.96875 21.046875 41.4375 25.1875 
Q 45.90625 29.34375 45.90625 35.6875 
Q 45.90625 42.046875 41.453125 46.390625 
Q 37.3125 50.484375 31.640625 50.78125 
z
" id="DejaVuSans-9791"/>
      <path d="M 9.8125 72.90625 
L 24.515625 72.90625 
L 43.109375 23.296875 
L 61.8125 72.90625 
L 76.515625 72.90625 
L 76.515625 0 
L 66.890625 0 
L 66.890625 64.015625 
L 48.09375 14.015625 
L 38.1875 14.015625 
L 19.390625 64.015625 
L 19.390625 0 
L 9.8125 0 
z
" id="DejaVuSans-77"/>
      <path d="M 56.203125 29.59375 
L 56.203125 25.203125 
L 14.890625 25.203125 
Q 15.484375 15.921875 20.484375 11.0625 
Q 25.484375 6.203125 34.421875 6.203125 
Q 39.59375 6.203125 44.453125 7.46875 
Q 49.3125 8.734375 54.109375 11.28125 
L 54.109375 2.78125 
Q 49.265625 0.734375 44.1875 -0.34375 
Q 39.109375 -1.421875 33.890625 -1.421875 
Q 20.796875 -1.421875 13.15625 6.1875 
Q 5.515625 13.8125 5.515625 26.8125 
Q 5.515625 40.234375 12.765625 48.109375 
Q 20.015625 56 32.328125 56 
Q 43.359375 56 49.78125 48.890625 
Q 56.203125 41.796875 56.203125 29.59375 
z
M 47.21875 32.234375 
Q 47.125 39.59375 43.09375 43.984375 
Q 39.0625 48.390625 32.421875 48.390625 
Q 24.90625 48.390625 20.390625 44.140625 
Q 15.875 39.890625 15.1875 32.171875 
z
" id="DejaVuSans-101"/>
      <path d="M 41.109375 46.296875 
Q 39.59375 47.171875 37.8125 47.578125 
Q 36.03125 48 33.890625 48 
Q 26.265625 48 22.1875 43.046875 
Q 18.109375 38.09375 18.109375 28.8125 
L 18.109375 0 
L 9.078125 0 
L 9.078125 54.6875 
L 18.109375 54.6875 
L 18.109375 46.1875 
Q 20.953125 51.171875 25.484375 53.578125 
Q 30.03125 56 36.53125 56 
Q 37.453125 56 38.578125 55.875 
Q 39.703125 55.765625 41.0625 55.515625 
z
" id="DejaVuSans-114"/>
      <path d="M 48.78125 52.59375 
L 48.78125 44.1875 
Q 44.96875 46.296875 41.140625 47.34375 
Q 37.3125 48.390625 33.40625 48.390625 
Q 24.65625 48.390625 19.8125 42.84375 
Q 14.984375 37.3125 14.984375 27.296875 
Q 14.984375 17.28125 19.8125 11.734375 
Q 24.65625 6.203125 33.40625 6.203125 
Q 37.3125 6.203125 41.140625 7.25 
Q 44.96875 8.296875 48.78125 10.40625 
L 48.78125 2.09375 
Q 45.015625 0.34375 40.984375 -0.53125 
Q 36.96875 -1.421875 32.421875 -1.421875 
Q 20.0625 -1.421875 12.78125 6.34375 
Q 5.515625 14.109375 5.515625 27.296875 
Q 5.515625 40.671875 12.859375 48.328125 
Q 20.21875 56 33.015625 56 
Q 37.15625 56 41.109375 55.140625 
Q 45.0625 54.296875 48.78125 52.59375 
z
" id="DejaVuSans-99"/>
      <path d="M 32.171875 -5.078125 
Q 28.375 -14.84375 24.75 -17.8125 
Q 21.140625 -20.796875 15.09375 -20.796875 
L 7.90625 -20.796875 
L 7.90625 -13.28125 
L 13.1875 -13.28125 
Q 16.890625 -13.28125 18.9375 -11.515625 
Q 21 -9.765625 23.484375 -3.21875 
L 25.09375 0.875 
L 2.984375 54.6875 
L 12.5 54.6875 
L 29.59375 11.921875 
L 46.6875 54.6875 
L 56.203125 54.6875 
z
" id="DejaVuSans-121"/>
     </defs>
     <g transform="translate(267.512 51.1075)scale(0.1 -0.1)">
      <use transform="translate(0 0.8125)" xlink:href="#DejaVuSans-9791"/>
      <use transform="translate(61.376953 0.8125)" xlink:href="#DejaVuSans-32"/>
      <use transform="translate(93.164062 0.8125)" xlink:href="#DejaVuSans-77"/>
      <use transform="translate(179.443359 0.8125)" xlink:href="#DejaVuSans-101"/>
      <use transform="translate(240.966797 0.8125)" xlink:href="#DejaVuSans-114"/>
      <use transform="translate(282.080078 0.8125)" xlink:href="#DejaVuSans-99"/>
      <use transform="translate(337.060547 0.8125)" xlink:href="#DejaVuSans-117"/>
      <use transform="translate(400.439453 0.8125)" xlink:href="#DejaVuSans-114"/>
      <use transform="translate(441.552734 0.8125)" xlink:href="#DejaVuSans-121"/>
     </g>
    </g>
    <g id="line2d_16"/>
    <g id="line2d_17">
     <g>
      <use style="fill:#008000;" x="249.512" xlink:href="#m3a5e73fadb" y="62.305937"/>
     </g>
    </g>
    <g id="text_3">
     <!-- $♀$ Venus -->
     <defs>
      <path d="M 36.625 64.40625 
Q 28.609375 64.40625 22.96875 58.828125 
Q 17.328125 53.265625 17.328125 45.265625 
Q 17.328125 37.3125 22.96875 32.03125 
Q 28.609375 26.765625 36.625 26.765625 
Q 44.484375 26.765625 50.1875 32.03125 
Q 55.90625 37.3125 55.90625 45.265625 
Q 55.90625 53.265625 50.1875 58.828125 
Q 44.484375 64.40625 36.625 64.40625 
z
M 16.796875 25.984375 
Q 8.546875 33.640625 8.546875 45.265625 
Q 8.546875 56.9375 16.75 65.03125 
Q 24.953125 73.140625 36.625 73.140625 
Q 48.140625 73.140625 56.421875 65.03125 
Q 64.703125 56.9375 64.703125 45.265625 
Q 64.703125 33.59375 56.453125 25.984375 
Q 49.8125 19.828125 41.015625 18.953125 
L 41.015625 6.0625 
L 54.296875 6.0625 
L 54.296875 0 
L 41.015625 0 
L 41.015625 -12.546875 
L 32.234375 -12.546875 
L 32.234375 0 
L 18.953125 0 
L 18.953125 6.0625 
L 32.234375 6.0625 
L 32.234375 19 
Q 23.390625 19.828125 16.796875 25.984375 
z
" id="DejaVuSans-9792"/>
      <path d="M 28.609375 0 
L 0.78125 72.90625 
L 11.078125 72.90625 
L 34.1875 11.53125 
L 57.328125 72.90625 
L 67.578125 72.90625 
L 39.796875 0 
z
" id="DejaVuSans-86"/>
      <path d="M 44.28125 53.078125 
L 44.28125 44.578125 
Q 40.484375 46.53125 36.375 47.5 
Q 32.28125 48.484375 27.875 48.484375 
Q 21.1875 48.484375 17.84375 46.4375 
Q 14.5 44.390625 14.5 40.28125 
Q 14.5 37.15625 16.890625 35.375 
Q 19.28125 33.59375 26.515625 31.984375 
L 29.59375 31.296875 
Q 39.15625 29.25 43.1875 25.515625 
Q 47.21875 21.78125 47.21875 15.09375 
Q 47.21875 7.46875 41.1875 3.015625 
Q 35.15625 -1.421875 24.609375 -1.421875 
Q 20.21875 -1.421875 15.453125 -0.5625 
Q 10.6875 0.296875 5.421875 2 
L 5.421875 11.28125 
Q 10.40625 8.6875 15.234375 7.390625 
Q 20.0625 6.109375 24.8125 6.109375 
Q 31.15625 6.109375 34.5625 8.28125 
Q 37.984375 10.453125 37.984375 14.40625 
Q 37.984375 18.0625 35.515625 20.015625 
Q 33.0625 21.96875 24.703125 23.78125 
L 21.578125 24.515625 
Q 13.234375 26.265625 9.515625 29.90625 
Q 5.8125 33.546875 5.8125 39.890625 
Q 5.8125 47.609375 11.28125 51.796875 
Q 16.75 56 26.8125 56 
Q 31.78125 56 36.171875 55.265625 
Q 40.578125 54.546875 44.28125 53.078125 
z
" id="DejaVuSans-115"/>
     </defs>
     <g transform="translate(267.512 65.805937)scale(0.1 -0.1)">
      <use transform="translate(0 0.859375)" xlink:href="#DejaVuSans-9792"/>
      <use transform="translate(73.242188 0.859375)" xlink:href="#DejaVuSans-32"/>
      <use transform="translate(105.029297 0.859375)" xlink:href="#DejaVuSans-86"/>
      <use transform="translate(173.4375 0.859375)" xlink:href="#DejaVuSans-101"/>
      <use transform="translate(234.960938 0.859375)" xlink:href="#DejaVuSans-110"/>
      <use transform="translate(298.339844 0.859375)" xlink:href="#DejaVuSans-117"/>
      <use transform="translate(361.71875 0.859375)" xlink:href="#DejaVuSans-115"/>
     </g>
    </g>
    <g id="line2d_18"/>
    <g id="line2d_19">
     <g>
      <use style="fill:#0000ff;" x="249.512" xlink:href="#m328b8ec06a" y="76.984062"/>
     </g>
    </g>
    <g id="text_4">
     <!-- $⊕$ Earth -->
     <defs>
      <path d="M 51.65625 55.03125 
Q 47.125 56.9375 41.890625 56.9375 
Q 36.671875 56.9375 32.125 55.03125 
Q 27.640625 53.125 23.921875 49.421875 
Q 20.171875 45.65625 18.3125 41.15625 
Q 16.453125 36.671875 16.453125 31.34375 
Q 16.453125 26.171875 18.3125 21.671875 
Q 20.171875 17.1875 23.921875 13.421875 
Q 27.640625 9.71875 32.125 7.8125 
Q 36.671875 5.90625 41.890625 5.90625 
Q 47.125 5.90625 51.65625 7.8125 
Q 56.15625 9.71875 59.859375 13.421875 
Q 63.625 17.1875 65.46875 21.671875 
Q 67.328125 26.171875 67.328125 31.34375 
Q 67.328125 36.671875 65.46875 41.15625 
Q 63.625 45.65625 59.859375 49.421875 
Q 56.15625 53.125 51.65625 55.03125 
z
M 23.53125 59.375 
Q 35.15625 64.265625 41.890625 64.265625 
Q 48.640625 64.265625 54.4375 61.8125 
Q 60.25 59.375 65.046875 54.59375 
Q 69.875 49.75 72.265625 43.953125 
Q 74.65625 38.1875 74.65625 31.34375 
Q 74.65625 24.65625 72.265625 18.84375 
Q 69.875 13.09375 65.046875 8.25 
Q 60.25 3.46875 54.4375 1.015625 
Q 48.640625 -1.421875 41.890625 -1.421875 
Q 35.15625 -1.421875 29.34375 1.015625 
Q 23.53125 3.46875 18.75 8.25 
Q 13.921875 13.09375 11.53125 18.84375 
Q 9.125 24.65625 9.125 31.34375 
Q 9.125 38.1875 11.53125 43.953125 
Q 13.921875 49.75 18.75 54.59375 
Q 23.53125 59.375 35.15625 64.265625 
z
M 46.046875 52.9375 
L 46.046875 35.5 
L 63.421875 35.5 
L 63.421875 27.203125 
L 46.046875 27.203125 
L 46.046875 9.765625 
L 37.75 9.765625 
L 37.75 27.203125 
L 20.359375 27.203125 
L 20.359375 35.5 
L 37.75 35.5 
L 37.75 52.9375 
z
" id="DejaVuSans-8853"/>
      <path d="M 9.8125 72.90625 
L 55.90625 72.90625 
L 55.90625 64.59375 
L 19.671875 64.59375 
L 19.671875 43.015625 
L 54.390625 43.015625 
L 54.390625 34.71875 
L 19.671875 34.71875 
L 19.671875 8.296875 
L 56.78125 8.296875 
L 56.78125 0 
L 9.8125 0 
z
" id="DejaVuSans-69"/>
      <path d="M 34.28125 27.484375 
Q 23.390625 27.484375 19.1875 25 
Q 14.984375 22.515625 14.984375 16.5 
Q 14.984375 11.71875 18.140625 8.90625 
Q 21.296875 6.109375 26.703125 6.109375 
Q 34.1875 6.109375 38.703125 11.40625 
Q 43.21875 16.703125 43.21875 25.484375 
L 43.21875 27.484375 
z
M 52.203125 31.203125 
L 52.203125 0 
L 43.21875 0 
L 43.21875 8.296875 
Q 40.140625 3.328125 35.546875 0.953125 
Q 30.953125 -1.421875 24.3125 -1.421875 
Q 15.921875 -1.421875 10.953125 3.296875 
Q 6 8.015625 6 15.921875 
Q 6 25.140625 12.171875 29.828125 
Q 18.359375 34.515625 30.609375 34.515625 
L 43.21875 34.515625 
L 43.21875 35.40625 
Q 43.21875 41.609375 39.140625 45 
Q 35.0625 48.390625 27.6875 48.390625 
Q 23 48.390625 18.546875 47.265625 
Q 14.109375 46.140625 10.015625 43.890625 
L 10.015625 52.203125 
Q 14.9375 54.109375 19.578125 55.046875 
Q 24.21875 56 28.609375 56 
Q 40.484375 56 46.34375 49.84375 
Q 52.203125 43.703125 52.203125 31.203125 
z
" id="DejaVuSans-97"/>
      <path d="M 18.3125 70.21875 
L 18.3125 54.6875 
L 36.8125 54.6875 
L 36.8125 47.703125 
L 18.3125 47.703125 
L 18.3125 18.015625 
Q 18.3125 11.328125 20.140625 9.421875 
Q 21.96875 7.515625 27.59375 7.515625 
L 36.8125 7.515625 
L 36.8125 0 
L 27.59375 0 
Q 17.1875 0 13.234375 3.875 
Q 9.28125 7.765625 9.28125 18.015625 
L 9.28125 47.703125 
L 2.6875 47.703125 
L 2.6875 54.6875 
L 9.28125 54.6875 
L 9.28125 70.21875 
z
" id="DejaVuSans-116"/>
      <path d="M 54.890625 33.015625 
L 54.890625 0 
L 45.90625 0 
L 45.90625 32.71875 
Q 45.90625 40.484375 42.875 44.328125 
Q 39.84375 48.1875 33.796875 48.1875 
Q 26.515625 48.1875 22.3125 43.546875 
Q 18.109375 38.921875 18.109375 30.90625 
L 18.109375 0 
L 9.078125 0 
L 9.078125 75.984375 
L 18.109375 75.984375 
L 18.109375 46.1875 
Q 21.34375 51.125 25.703125 53.5625 
Q 30.078125 56 35.796875 56 
Q 45.21875 56 50.046875 50.171875 
Q 54.890625 44.34375 54.890625 33.015625 
z
" id="DejaVuSans-104"/>
     </defs>
     <g transform="translate(267.512 80.484062)scale(0.1 -0.1)">
      <use transform="translate(0 0.015625)" xlink:href="#DejaVuSans-8853"/>
      <use transform="translate(83.789062 0.015625)" xlink:href="#DejaVuSans-32"/>
      <use transform="translate(115.576172 0.015625)" xlink:href="#DejaVuSans-69"/>
      <use transform="translate(178.759766 0.015625)" xlink:href="#DejaVuSans-97"/>
      <use transform="translate(240.039062 0.015625)" xlink:href="#DejaVuSans-114"/>
      <use transform="translate(281.152344 0.015625)" xlink:href="#DejaVuSans-116"/>
      <use transform="translate(320.361328 0.015625)" xlink:href="#DejaVuSans-104"/>
     </g>
    </g>
    <g id="line2d_20"/>
    <g id="line2d_21">
     <g>
      <use style="fill:#ffffff;" x="249.512" xlink:href="#m32fd447ef9" y="91.662187"/>
     </g>
    </g>
    <g id="text_5">
     <!-- $☽$ Moon -->
     <defs>
      <path d="M 43.65625 73 
Q 62.9375 73 76.21875 54.59375 
Q 81.390625 46.140625 81.390625 36.46875 
Q 81.390625 17.328125 62.0625 4.78125 
Q 53.328125 0 44.734375 0 
L 42.328125 0 
Q 40.046875 0 36.078125 0.734375 
L 36.078125 1.03125 
Q 49.609375 4.890625 55.71875 13.53125 
Q 63.28125 23.390625 63.28125 36.46875 
Q 63.28125 56 46.96875 66.9375 
Q 40.328125 70.84375 35.796875 71.625 
L 35.796875 71.78125 
Q 35.796875 72.3125 43.0625 73 
z
M 45.015625 69.96875 
L 45.015625 69.828125 
Q 67.328125 60.203125 67.328125 36.1875 
Q 67.328125 16.546875 50.875 5.21875 
L 48.78125 4.046875 
L 48.78125 3.859375 
L 49.078125 3.859375 
Q 53.265625 3.859375 60.984375 7.90625 
Q 72.359375 15.328125 76.375 27.25 
Q 77.78125 31.78125 77.78125 36.328125 
L 77.78125 36.765625 
Q 77.78125 52.25 60.84375 64.984375 
Q 52.875 69.96875 45.171875 69.96875 
z
" id="DejaVuSans-9789"/>
      <path d="M 30.609375 48.390625 
Q 23.390625 48.390625 19.1875 42.75 
Q 14.984375 37.109375 14.984375 27.296875 
Q 14.984375 17.484375 19.15625 11.84375 
Q 23.34375 6.203125 30.609375 6.203125 
Q 37.796875 6.203125 41.984375 11.859375 
Q 46.1875 17.53125 46.1875 27.296875 
Q 46.1875 37.015625 41.984375 42.703125 
Q 37.796875 48.390625 30.609375 48.390625 
z
M 30.609375 56 
Q 42.328125 56 49.015625 48.375 
Q 55.71875 40.765625 55.71875 27.296875 
Q 55.71875 13.875 49.015625 6.21875 
Q 42.328125 -1.421875 30.609375 -1.421875 
Q 18.84375 -1.421875 12.171875 6.21875 
Q 5.515625 13.875 5.515625 27.296875 
Q 5.515625 40.765625 12.171875 48.375 
Q 18.84375 56 30.609375 56 
z
" id="DejaVuSans-111"/>
     </defs>
     <g transform="translate(267.512 95.162187)scale(0.1 -0.1)">
      <use xlink:href="#DejaVuSans-9789"/>
      <use transform="translate(89.648438 0)" xlink:href="#DejaVuSans-32"/>
      <use transform="translate(121.435547 0)" xlink:href="#DejaVuSans-77"/>
      <use transform="translate(207.714844 0)" xlink:href="#DejaVuSans-111"/>
      <use transform="translate(268.896484 0)" xlink:href="#DejaVuSans-111"/>
      <use transform="translate(330.078125 0)" xlink:href="#DejaVuSans-110"/>
     </g>
    </g>
    <g id="line2d_22"/>
    <g id="line2d_23">
     <g>
      <use style="fill:#ff0000;" x="249.512" xlink:href="#m9edc592c2e" y="106.340312"/>
     </g>
    </g>
    <g id="text_6">
     <!-- $♂$ Mars -->
     <defs>
      <path d="M 35.984375 44.828125 
Q 27.984375 44.828125 22.34375 39.25 
Q 16.703125 33.6875 16.703125 25.671875 
Q 16.703125 17.671875 22.34375 12.390625 
Q 27.984375 7.125 35.984375 7.125 
Q 43.84375 7.125 49.5625 12.390625 
Q 55.28125 17.671875 55.28125 25.671875 
Q 55.28125 33.6875 49.5625 39.25 
Q 43.84375 44.828125 35.984375 44.828125 
z
M 56.109375 6.59375 
Q 47.90625 -1.421875 35.984375 -1.421875 
Q 24.515625 -1.421875 16.203125 6.3125 
Q 7.90625 14.0625 7.90625 25.6875 
Q 7.90625 37.3125 16.328125 45.625 
Q 24.75 53.953125 35.984375 53.515625 
Q 47.125 53.125 52.59375 48.09375 
L 70.21875 65.09375 
L 52.09375 65.09375 
L 58.9375 72.015625 
L 83.0625 72.015625 
L 83.0625 48 
L 76.078125 41.015625 
L 76.078125 59.234375 
L 58.59375 42.234375 
Q 64.0625 35.109375 64.0625 25.6875 
Q 64.0625 14.359375 56.109375 6.59375 
z
" id="DejaVuSans-9794"/>
     </defs>
     <g transform="translate(267.512 109.840312)scale(0.1 -0.1)">
      <use transform="translate(0 0.09375)" xlink:href="#DejaVuSans-9794"/>
      <use transform="translate(89.648438 0.09375)" xlink:href="#DejaVuSans-32"/>
      <use transform="translate(121.435547 0.09375)" xlink:href="#DejaVuSans-77"/>
      <use transform="translate(207.714844 0.09375)" xlink:href="#DejaVuSans-97"/>
      <use transform="translate(268.994141 0.09375)" xlink:href="#DejaVuSans-114"/>
      <use transform="translate(310.107422 0.09375)" xlink:href="#DejaVuSans-115"/>
     </g>
    </g>
    <g id="line2d_24"/>
    <g id="line2d_25">
     <g>
      <use style="fill:#ffa500;" x="347.612" xlink:href="#m95f96a41d2" y="32.929375"/>
     </g>
    </g>
    <g id="text_7">
     <!-- $♃$ Jupiter -->
     <defs>
      <path d="M 38.140625 25.921875 
L 38.140625 25.984375 
Q 44.09375 25.984375 48.234375 30.15625 
Q 52.390625 34.328125 52.390625 40.234375 
Q 52.390625 46.140625 48.265625 50.3125 
Q 44.140625 54.5 38.140625 54.5 
Q 32.234375 54.5 28.046875 50.3125 
Q 23.875 46.140625 23.875 40.234375 
L 23.875 40.140625 
L 16.546875 40.140625 
Q 16.546875 49.171875 22.84375 55.515625 
Q 29.15625 61.859375 38.140625 61.859375 
Q 47.265625 61.859375 53.5625 55.515625 
Q 59.859375 49.171875 59.859375 40.140625 
Q 59.859375 31.9375 54.546875 25.921875 
L 65.625 25.921875 
L 65.625 73.046875 
L 73 73.046875 
L 73 0 
L 65.625 0 
L 65.625 18.5625 
L 16.546875 18.5625 
L 16.546875 25.921875 
z
" id="DejaVuSans-9795"/>
      <path d="M 9.8125 72.90625 
L 19.671875 72.90625 
L 19.671875 5.078125 
Q 19.671875 -8.109375 14.671875 -14.0625 
Q 9.671875 -20.015625 -1.421875 -20.015625 
L -5.171875 -20.015625 
L -5.171875 -11.71875 
L -2.09375 -11.71875 
Q 4.4375 -11.71875 7.125 -8.046875 
Q 9.8125 -4.390625 9.8125 5.078125 
z
" id="DejaVuSans-74"/>
      <path d="M 18.109375 8.203125 
L 18.109375 -20.796875 
L 9.078125 -20.796875 
L 9.078125 54.6875 
L 18.109375 54.6875 
L 18.109375 46.390625 
Q 20.953125 51.265625 25.265625 53.625 
Q 29.59375 56 35.59375 56 
Q 45.5625 56 51.78125 48.09375 
Q 58.015625 40.1875 58.015625 27.296875 
Q 58.015625 14.40625 51.78125 6.484375 
Q 45.5625 -1.421875 35.59375 -1.421875 
Q 29.59375 -1.421875 25.265625 0.953125 
Q 20.953125 3.328125 18.109375 8.203125 
z
M 48.6875 27.296875 
Q 48.6875 37.203125 44.609375 42.84375 
Q 40.53125 48.484375 33.40625 48.484375 
Q 26.265625 48.484375 22.1875 42.84375 
Q 18.109375 37.203125 18.109375 27.296875 
Q 18.109375 17.390625 22.1875 11.75 
Q 26.265625 6.109375 33.40625 6.109375 
Q 40.53125 6.109375 44.609375 11.75 
Q 48.6875 17.390625 48.6875 27.296875 
z
" id="DejaVuSans-112"/>
      <path d="M 9.421875 54.6875 
L 18.40625 54.6875 
L 18.40625 0 
L 9.421875 0 
z
M 9.421875 75.984375 
L 18.40625 75.984375 
L 18.40625 64.59375 
L 9.421875 64.59375 
z
" id="DejaVuSans-105"/>
     </defs>
     <g transform="translate(365.612 36.429375)scale(0.1 -0.1)">
      <use transform="translate(0 0.015625)" xlink:href="#DejaVuSans-9795"/>
      <use transform="translate(89.648438 0.015625)" xlink:href="#DejaVuSans-32"/>
      <use transform="translate(121.435547 0.015625)" xlink:href="#DejaVuSans-74"/>
      <use transform="translate(150.927734 0.015625)" xlink:href="#DejaVuSans-117"/>
      <use transform="translate(214.306641 0.015625)" xlink:href="#DejaVuSans-112"/>
      <use transform="translate(277.783203 0.015625)" xlink:href="#DejaVuSans-105"/>
      <use transform="translate(305.566406 0.015625)" xlink:href="#DejaVuSans-116"/>
      <use transform="translate(344.775391 0.015625)" xlink:href="#DejaVuSans-101"/>
      <use transform="translate(406.298828 0.015625)" xlink:href="#DejaVuSans-114"/>
     </g>
    </g>
    <g id="line2d_26"/>
    <g id="line2d_27">
     <g>
      <use style="fill:#808080;" x="347.612" xlink:href="#m96ff067f94" y="47.627812"/>
     </g>
    </g>
    <g id="text_8">
     <!-- $♄$ Saturn -->
     <defs>
      <path d="M 27.046875 56.890625 
L 21.875 56.890625 
L 21.875 64.265625 
L 27.046875 64.265625 
L 27.046875 73.046875 
L 34.46875 73.046875 
L 34.46875 64.265625 
L 43.171875 64.265625 
L 43.171875 56.890625 
L 34.46875 56.890625 
L 34.46875 37.984375 
Q 39.890625 43.3125 47.3125 43.3125 
Q 56 43.3125 61.828125 37.015625 
Q 67.671875 30.71875 67.671875 21.578125 
Q 67.671875 17.1875 64.25 11.59375 
Q 60.84375 6 60.84375 0.09375 
L 60.84375 0 
L 53.46875 0 
Q 53.46875 6.453125 56.90625 12.25 
Q 60.359375 18.0625 60.359375 21.578125 
Q 60.359375 27.59375 56.5625 31.71875 
Q 52.78125 35.84375 47.359375 35.84375 
Q 42 35.84375 38.234375 31.6875 
Q 34.46875 27.546875 34.46875 21.578125 
L 34.46875 0 
L 27.046875 0 
z
" id="DejaVuSans-9796"/>
     </defs>
     <g transform="translate(365.612 51.127812)scale(0.1 -0.1)">
      <use transform="translate(0 0.78125)" xlink:href="#DejaVuSans-9796"/>
      <use transform="translate(89.648438 0.78125)" xlink:href="#DejaVuSans-32"/>
      <use transform="translate(121.435547 0.78125)" xlink:href="#DejaVuSans-83"/>
      <use transform="translate(184.912109 0.78125)" xlink:href="#DejaVuSans-97"/>
      <use transform="translate(246.191406 0.78125)" xlink:href="#DejaVuSans-116"/>
      <use transform="translate(285.400391 0.78125)" xlink:href="#DejaVuSans-117"/>
      <use transform="translate(348.779297 0.78125)" xlink:href="#DejaVuSans-114"/>
      <use transform="translate(389.892578 0.78125)" xlink:href="#DejaVuSans-110"/>
     </g>
    </g>
    <g id="line2d_28"/>
    <g id="line2d_29">
     <g>
      <use style="fill:#0000ff;" x="347.612" xlink:href="#m74c830a710" y="62.305937"/>
     </g>
    </g>
    <g id="text_9">
     <!-- $♅$ Uranus -->
     <defs>
      <path d="M 51.3125 15.484375 
Q 47.515625 19.34375 44.78125 19.34375 
Q 42.046875 19.34375 40.109375 17.40625 
Q 38.1875 15.484375 38.1875 12.796875 
Q 38.1875 10.015625 40.109375 8.109375 
Q 42.046875 6.203125 44.78125 6.203125 
Q 47.46875 6.203125 49.390625 8.109375 
Q 51.3125 10.015625 51.3125 12.796875 
Q 51.3125 15.484375 47.515625 19.34375 
z
M 48.484375 24.953125 
Q 51.46875 24.078125 53.8125 21.734375 
Q 57.515625 18.015625 57.515625 12.734375 
Q 57.515625 7.46875 53.796875 3.734375 
Q 50.09375 0 44.78125 0 
Q 39.546875 0 35.8125 3.734375 
Q 32.078125 7.46875 32.078125 12.734375 
Q 32.078125 18.015625 35.796875 21.734375 
Q 38.09375 24.125 41.109375 24.953125 
L 41.109375 44.28125 
L 27.046875 44.28125 
L 27.046875 22.953125 
L 12.109375 22.953125 
L 12.109375 30.328125 
L 19.671875 30.328125 
L 19.671875 65.625 
L 12.109375 65.625 
L 12.109375 73.046875 
L 27.046875 73.046875 
L 27.046875 51.65625 
L 41.109375 51.65625 
L 41.109375 73.046875 
L 48.484375 73.046875 
L 48.484375 51.65625 
L 62.546875 51.65625 
L 62.546875 73.046875 
L 77.4375 73.046875 
L 77.4375 65.625 
L 69.96875 65.625 
L 69.96875 30.328125 
L 77.4375 30.328125 
L 77.4375 22.953125 
L 62.546875 22.953125 
L 62.546875 44.28125 
L 48.484375 44.28125 
z
" id="DejaVuSans-9797"/>
      <path d="M 8.6875 72.90625 
L 18.609375 72.90625 
L 18.609375 28.609375 
Q 18.609375 16.890625 22.84375 11.734375 
Q 27.09375 6.59375 36.625 6.59375 
Q 46.09375 6.59375 50.34375 11.734375 
Q 54.59375 16.890625 54.59375 28.609375 
L 54.59375 72.90625 
L 64.5 72.90625 
L 64.5 27.390625 
Q 64.5 13.140625 57.4375 5.859375 
Q 50.390625 -1.421875 36.625 -1.421875 
Q 22.796875 -1.421875 15.734375 5.859375 
Q 8.6875 13.140625 8.6875 27.390625 
z
" id="DejaVuSans-85"/>
     </defs>
     <g transform="translate(365.612 65.805937)scale(0.1 -0.1)">
      <use transform="translate(0 0.953125)" xlink:href="#DejaVuSans-9797"/>
      <use transform="translate(89.648438 0.953125)" xlink:href="#DejaVuSans-32"/>
      <use transform="translate(121.435547 0.953125)" xlink:href="#DejaVuSans-85"/>
      <use transform="translate(194.628906 0.953125)" xlink:href="#DejaVuSans-114"/>
      <use transform="translate(235.742188 0.953125)" xlink:href="#DejaVuSans-97"/>
      <use transform="translate(297.021484 0.953125)" xlink:href="#DejaVuSans-110"/>
      <use transform="translate(360.400391 0.953125)" xlink:href="#DejaVuSans-117"/>
      <use transform="translate(423.779297 0.953125)" xlink:href="#DejaVuSans-115"/>
     </g>
    </g>
    <g id="line2d_30"/>
    <g id="line2d_31">
     <g>
      <use style="fill:#800080;" x="347.612" xlink:href="#m1930a9f5e5" y="76.984062"/>
     </g>
    </g>
    <g id="text_10">
     <!-- $♆$ Neptune -->
     <defs>
      <path d="M 48.53125 9.125 
L 48.53125 0 
L 41.15625 0 
L 41.15625 9.125 
L 32.5625 9.125 
L 32.5625 16.5 
L 41.15625 16.5 
L 41.15625 23.296875 
Q 33.109375 24.359375 27.15625 30.328125 
Q 19.828125 37.640625 19.78125 48.140625 
L 19.78125 52.25 
L 12.75 45.3125 
L 12.703125 52.15625 
L 19.78125 59.625 
L 27.203125 59.625 
L 34.234375 52.15625 
L 34.234375 45.3125 
L 27.203125 52.25 
L 27.203125 48.140625 
L 27.296875 48.140625 
L 27.296875 48.046875 
L 27.203125 48.046875 
Q 27.25 40.671875 32.328125 35.59375 
Q 36.140625 31.734375 41.15625 30.765625 
L 41.15625 65.625 
L 34.078125 58.734375 
L 34.03125 65.53125 
L 41.15625 73.046875 
L 48.53125 73.046875 
L 55.609375 65.53125 
L 55.609375 58.734375 
L 48.53125 65.625 
L 48.53125 30.8125 
Q 53.46875 31.78125 57.234375 35.59375 
Q 62.40625 40.765625 62.40625 48.09375 
L 62.40625 48.140625 
L 62.453125 48.140625 
L 62.453125 52.484375 
L 55.421875 45.5625 
L 55.375 52.390625 
L 62.453125 59.859375 
L 69.875 59.859375 
L 76.90625 52.390625 
L 76.90625 45.5625 
L 69.875 52.484375 
L 69.875 48.140625 
L 69.921875 48.140625 
L 69.921875 47.953125 
Q 69.875 37.640625 62.546875 30.328125 
Q 56.59375 24.421875 48.53125 23.296875 
L 48.53125 16.5 
L 57.078125 16.5 
L 57.078125 9.125 
z
" id="DejaVuSans-9798"/>
      <path d="M 9.8125 72.90625 
L 23.09375 72.90625 
L 55.421875 11.921875 
L 55.421875 72.90625 
L 64.984375 72.90625 
L 64.984375 0 
L 51.703125 0 
L 19.390625 60.984375 
L 19.390625 0 
L 9.8125 0 
z
" id="DejaVuSans-78"/>
     </defs>
     <g transform="translate(365.612 80.484062)scale(0.1 -0.1)">
      <use transform="translate(0 0.953125)" xlink:href="#DejaVuSans-9798"/>
      <use transform="translate(89.648438 0.953125)" xlink:href="#DejaVuSans-32"/>
      <use transform="translate(121.435547 0.953125)" xlink:href="#DejaVuSans-78"/>
      <use transform="translate(196.240234 0.953125)" xlink:href="#DejaVuSans-101"/>
      <use transform="translate(257.763672 0.953125)" xlink:href="#DejaVuSans-112"/>
      <use transform="translate(321.240234 0.953125)" xlink:href="#DejaVuSans-116"/>
      <use transform="translate(360.449219 0.953125)" xlink:href="#DejaVuSans-117"/>
      <use transform="translate(423.828125 0.953125)" xlink:href="#DejaVuSans-110"/>
      <use transform="translate(487.207031 0.953125)" xlink:href="#DejaVuSans-101"/>
     </g>
    </g>
    <g id="line2d_32"/>
    <g id="line2d_33">
     <g>
      <use x="347.612" xlink:href="#mdf5d8ba5cc" y="91.6825"/>
     </g>
    </g>
    <g id="text_11">
     <!-- $♇$ Pluto -->
     <defs>
      <path d="M 24.421875 73.046875 
L 44.390625 73.046875 
Q 59.125 73.046875 64.015625 62.890625 
Q 65.578125 59.125 65.578125 54.5 
Q 65.578125 41.5 53.328125 37.015625 
Q 50.4375 36.1875 47.796875 36.1875 
L 31.109375 36.1875 
L 31.109375 7.125 
L 62.0625 7.125 
L 62.453125 6.734375 
L 62.453125 0.390625 
L 62.0625 0 
L 24.421875 0 
L 24.03125 0.390625 
L 24.03125 72.609375 
z
M 31.109375 66.21875 
L 31.109375 42.96875 
L 47.015625 42.96875 
Q 53.375 42.96875 56.890625 49.3125 
Q 57.671875 50.59375 58.0625 54.5 
Q 58.0625 62.5 50.140625 65.4375 
Q 48.34375 66.21875 44.390625 66.21875 
z
" id="DejaVuSans-9799"/>
      <path d="M 19.671875 64.796875 
L 19.671875 37.40625 
L 32.078125 37.40625 
Q 38.96875 37.40625 42.71875 40.96875 
Q 46.484375 44.53125 46.484375 51.125 
Q 46.484375 57.671875 42.71875 61.234375 
Q 38.96875 64.796875 32.078125 64.796875 
z
M 9.8125 72.90625 
L 32.078125 72.90625 
Q 44.34375 72.90625 50.609375 67.359375 
Q 56.890625 61.8125 56.890625 51.125 
Q 56.890625 40.328125 50.609375 34.8125 
Q 44.34375 29.296875 32.078125 29.296875 
L 19.671875 29.296875 
L 19.671875 0 
L 9.8125 0 
z
" id="DejaVuSans-80"/>
      <path d="M 9.421875 75.984375 
L 18.40625 75.984375 
L 18.40625 0 
L 9.421875 0 
z
" id="DejaVuSans-108"/>
     </defs>
     <g transform="translate(365.612 95.1825)scale(0.1 -0.1)">
      <use transform="translate(0 0.015625)" xlink:href="#DejaVuSans-9799"/>
      <use transform="translate(89.648438 0.015625)" xlink:href="#DejaVuSans-32"/>
      <use transform="translate(121.435547 0.015625)" xlink:href="#DejaVuSans-80"/>
      <use transform="translate(181.738281 0.015625)" xlink:href="#DejaVuSans-108"/>
      <use transform="translate(209.521484 0.015625)" xlink:href="#DejaVuSans-117"/>
      <use transform="translate(272.900391 0.015625)" xlink:href="#DejaVuSans-116"/>
      <use transform="translate(312.109375 0.015625)" xlink:href="#DejaVuSans-111"/>
     </g>
    </g>
   </g>
  </g>
 </g>
 <defs>
  <clipPath id="pbc2d55b120">
   <rect height="217.44" width="217.44" x="7.2" y="7.2"/>
  </clipPath>
 </defs>
</svg>
