<?xml version="1.0" encoding="utf-8" standalone="no"?>
<!DOCTYPE svg PUBLIC "-//W3C//DTD SVG 1.1//EN"
  "http://www.w3.org/Graphics/SVG/1.1/DTD/svg11.dtd">
<!-- Created with matplotlib (https://matplotlib.org/) -->
<svg height="270.661736pt" version="1.1" viewBox="0 0 386.203125 270.661736" width="386.203125pt" xmlns="http://www.w3.org/2000/svg" xmlns:xlink="http://www.w3.org/1999/xlink">
 <metadata>
  <rdf:RDF xmlns:cc="http://creativecommons.org/ns#" xmlns:dc="http://purl.org/dc/elements/1.1/" xmlns:rdf="http://www.w3.org/1999/02/22-rdf-syntax-ns#">
   <cc:Work>
    <dc:type rdf:resource="http://purl.org/dc/dcmitype/StillImage"/>
    <dc:date>2021-04-28T11:23:56.306036</dc:date>
    <dc:format>image/svg+xml</dc:format>
    <dc:creator>
     <cc:Agent>
      <dc:title>Matplotlib v3.3.0, https://matplotlib.org/</dc:title>
     </cc:Agent>
    </dc:creator>
   </cc:Work>
  </rdf:RDF>
 </metadata>
 <defs>
  <style type="text/css">*{stroke-linecap:butt;stroke-linejoin:round;}</style>
 </defs>
 <g id="figure_1">
  <g id="patch_1">
   <path d="M 0 270.661736 
L 386.203125 270.661736 
L 386.203125 0 
L 0 0 
z
" style="fill:none;opacity:0;"/>
  </g>
  <g id="axes_1">
   <g id="patch_2">
    <path d="M 44.203125 239.758125 
L 379.003125 239.758125 
L 379.003125 22.318125 
L 44.203125 22.318125 
z
" style="fill:#ffffff;"/>
   </g>
   <g id="matplotlib.axis_1">
    <g id="xtick_1">
     <g id="line2d_1">
      <defs>
       <path d="M 0 0 
L 0 3.5 
" id="mbc55ec9061" style="stroke:#000000;stroke-width:0.8;"/>
      </defs>
      <g>
       <use style="stroke:#000000;stroke-width:0.8;" x="59.421307" xlink:href="#mbc55ec9061" y="239.758125"/>
      </g>
     </g>
     <g id="text_1">
      <!-- II -->
      <g transform="translate(60.335996 255.666894)rotate(-60)scale(0.1 -0.1)">
       <defs>
        <path d="M 9.8125 72.90625 
L 19.671875 72.90625 
L 19.671875 0 
L 9.8125 0 
z
" id="DejaVuSans-73"/>
       </defs>
       <use xlink:href="#DejaVuSans-73"/>
       <use x="29.492188" xlink:href="#DejaVuSans-73"/>
      </g>
     </g>
    </g>
    <g id="xtick_2">
     <g id="line2d_2">
      <g>
       <use style="stroke:#000000;stroke-width:0.8;" x="74.639489" xlink:href="#mbc55ec9061" y="239.758125"/>
      </g>
     </g>
     <g id="text_2">
      <!-- XX -->
      <g transform="translate(73.604177 262.421892)rotate(-60)scale(0.1 -0.1)">
       <defs>
        <path d="M 6.296875 72.90625 
L 16.890625 72.90625 
L 35.015625 45.796875 
L 53.21875 72.90625 
L 63.8125 72.90625 
L 40.375 37.890625 
L 65.375 0 
L 54.78125 0 
L 34.28125 31 
L 13.625 0 
L 2.984375 0 
L 29 38.921875 
z
" id="DejaVuSans-88"/>
       </defs>
       <use xlink:href="#DejaVuSans-88"/>
       <use x="68.505859" xlink:href="#DejaVuSans-88"/>
      </g>
     </g>
    </g>
    <g id="xtick_3">
     <g id="line2d_3">
      <g>
       <use style="stroke:#000000;stroke-width:0.8;" x="89.85767" xlink:href="#mbc55ec9061" y="239.758125"/>
      </g>
     </g>
     <g id="text_3">
      <!-- YY -->
      <g transform="translate(89.193453 261.136385)rotate(-60)scale(0.1 -0.1)">
       <defs>
        <path d="M -0.203125 72.90625 
L 10.40625 72.90625 
L 30.609375 42.921875 
L 50.6875 72.90625 
L 61.28125 72.90625 
L 35.5 34.71875 
L 35.5 0 
L 25.59375 0 
L 25.59375 34.71875 
z
" id="DejaVuSans-89"/>
       </defs>
       <use xlink:href="#DejaVuSans-89"/>
       <use x="61.083984" xlink:href="#DejaVuSans-89"/>
      </g>
     </g>
    </g>
    <g id="xtick_4">
     <g id="line2d_4">
      <g>
       <use style="stroke:#000000;stroke-width:0.8;" x="105.075852" xlink:href="#mbc55ec9061" y="239.758125"/>
      </g>
     </g>
     <g id="text_4">
      <!-- XY -->
      <g transform="translate(104.226088 261.779139)rotate(-60)scale(0.1 -0.1)">
       <use xlink:href="#DejaVuSans-88"/>
       <use x="68.505859" xlink:href="#DejaVuSans-89"/>
      </g>
     </g>
    </g>
    <g id="xtick_5">
     <g id="line2d_5">
      <g>
       <use style="stroke:#000000;stroke-width:0.8;" x="120.294034" xlink:href="#mbc55ec9061" y="239.758125"/>
      </g>
     </g>
     <g id="text_5">
      <!-- YX -->
      <g transform="translate(119.44427 261.779139)rotate(-60)scale(0.1 -0.1)">
       <use xlink:href="#DejaVuSans-89"/>
       <use x="61.083984" xlink:href="#DejaVuSans-88"/>
      </g>
     </g>
    </g>
    <g id="xtick_6">
     <g id="line2d_6">
      <g>
       <use style="stroke:#000000;stroke-width:0.8;" x="135.512216" xlink:href="#mbc55ec9061" y="239.758125"/>
      </g>
     </g>
     <g id="text_6">
      <!-- xI -->
      <g transform="translate(135.684717 258.237907)rotate(-60)scale(0.1 -0.1)">
       <defs>
        <path d="M 54.890625 54.6875 
L 35.109375 28.078125 
L 55.90625 0 
L 45.3125 0 
L 29.390625 21.484375 
L 13.484375 0 
L 2.875 0 
L 24.125 28.609375 
L 4.6875 54.6875 
L 15.28125 54.6875 
L 29.78125 35.203125 
L 44.28125 54.6875 
z
" id="DejaVuSans-120"/>
       </defs>
       <use xlink:href="#DejaVuSans-120"/>
       <use x="59.179688" xlink:href="#DejaVuSans-73"/>
      </g>
     </g>
    </g>
    <g id="xtick_7">
     <g id="line2d_7">
      <g>
       <use style="stroke:#000000;stroke-width:0.8;" x="150.730398" xlink:href="#mbc55ec9061" y="239.758125"/>
      </g>
     </g>
     <g id="text_7">
      <!-- yI -->
      <g transform="translate(150.902899 258.237907)rotate(-60)scale(0.1 -0.1)">
       <defs>
        <path d="M 32.171875 -5.078125 
Q 28.375 -14.84375 24.75 -17.8125 
Q 21.140625 -20.796875 15.09375 -20.796875 
L 7.90625 -20.796875 
L 7.90625 -13.28125 
L 13.1875 -13.28125 
Q 16.890625 -13.28125 18.9375 -11.515625 
Q 21 -9.765625 23.484375 -3.21875 
L 25.09375 0.875 
L 2.984375 54.6875 
L 12.5 54.6875 
L 29.59375 11.921875 
L 46.6875 54.6875 
L 56.203125 54.6875 
z
" id="DejaVuSans-121"/>
       </defs>
       <use xlink:href="#DejaVuSans-121"/>
       <use x="59.179688" xlink:href="#DejaVuSans-73"/>
      </g>
     </g>
    </g>
    <g id="xtick_8">
     <g id="line2d_8">
      <g>
       <use style="stroke:#000000;stroke-width:0.8;" x="165.94858" xlink:href="#mbc55ec9061" y="239.758125"/>
      </g>
     </g>
     <g id="text_8">
      <!-- xy -->
      <g transform="translate(165.378893 260.808919)rotate(-60)scale(0.1 -0.1)">
       <use xlink:href="#DejaVuSans-120"/>
       <use x="59.179688" xlink:href="#DejaVuSans-121"/>
      </g>
     </g>
    </g>
    <g id="xtick_9">
     <g id="line2d_9">
      <g>
       <use style="stroke:#000000;stroke-width:0.8;" x="181.166761" xlink:href="#mbc55ec9061" y="239.758125"/>
      </g>
     </g>
     <g id="text_9">
      <!-- yx -->
      <g transform="translate(180.597075 260.808919)rotate(-60)scale(0.1 -0.1)">
       <use xlink:href="#DejaVuSans-121"/>
       <use x="59.179688" xlink:href="#DejaVuSans-120"/>
      </g>
     </g>
    </g>
    <g id="xtick_10">
     <g id="line2d_10">
      <g>
       <use style="stroke:#000000;stroke-width:0.8;" x="196.384943" xlink:href="#mbc55ec9061" y="239.758125"/>
      </g>
     </g>
     <g id="text_10">
      <!-- xY -->
      <g transform="translate(195.767991 260.972652)rotate(-60)scale(0.1 -0.1)">
       <use xlink:href="#DejaVuSans-120"/>
       <use x="59.179688" xlink:href="#DejaVuSans-89"/>
      </g>
     </g>
    </g>
    <g id="xtick_11">
     <g id="line2d_11">
      <g>
       <use style="stroke:#000000;stroke-width:0.8;" x="211.603125" xlink:href="#mbc55ec9061" y="239.758125"/>
      </g>
     </g>
     <g id="text_11">
      <!-- yX -->
      <g transform="translate(210.800626 261.615406)rotate(-60)scale(0.1 -0.1)">
       <use xlink:href="#DejaVuSans-121"/>
       <use x="59.179688" xlink:href="#DejaVuSans-88"/>
      </g>
     </g>
    </g>
    <g id="xtick_12">
     <g id="line2d_12">
      <g>
       <use style="stroke:#000000;stroke-width:0.8;" x="226.821307" xlink:href="#mbc55ec9061" y="239.758125"/>
      </g>
     </g>
     <g id="text_12">
      <!-- Xy -->
      <g transform="translate(226.018808 261.615406)rotate(-60)scale(0.1 -0.1)">
       <use xlink:href="#DejaVuSans-88"/>
       <use x="68.505859" xlink:href="#DejaVuSans-121"/>
      </g>
     </g>
    </g>
    <g id="xtick_13">
     <g id="line2d_13">
      <g>
       <use style="stroke:#000000;stroke-width:0.8;" x="242.039489" xlink:href="#mbc55ec9061" y="239.758125"/>
      </g>
     </g>
     <g id="text_13">
      <!-- Yx -->
      <g transform="translate(241.422537 260.972652)rotate(-60)scale(0.1 -0.1)">
       <use xlink:href="#DejaVuSans-89"/>
       <use x="61.083984" xlink:href="#DejaVuSans-120"/>
      </g>
     </g>
    </g>
    <g id="xtick_14">
     <g id="line2d_14">
      <g>
       <use style="stroke:#000000;stroke-width:0.8;" x="257.25767" xlink:href="#mbc55ec9061" y="239.758125"/>
      </g>
     </g>
     <g id="text_14">
      <!-- xX -->
      <g transform="translate(256.455172 261.615406)rotate(-60)scale(0.1 -0.1)">
       <use xlink:href="#DejaVuSans-120"/>
       <use x="59.179688" xlink:href="#DejaVuSans-88"/>
      </g>
     </g>
    </g>
    <g id="xtick_15">
     <g id="line2d_15">
      <g>
       <use style="stroke:#000000;stroke-width:0.8;" x="272.475852" xlink:href="#mbc55ec9061" y="239.758125"/>
      </g>
     </g>
     <g id="text_15">
      <!-- Xx -->
      <g transform="translate(271.673354 261.615406)rotate(-60)scale(0.1 -0.1)">
       <use xlink:href="#DejaVuSans-88"/>
       <use x="68.505859" xlink:href="#DejaVuSans-120"/>
      </g>
     </g>
    </g>
    <g id="xtick_16">
     <g id="line2d_16">
      <g>
       <use style="stroke:#000000;stroke-width:0.8;" x="287.694034" xlink:href="#mbc55ec9061" y="239.758125"/>
      </g>
     </g>
     <g id="text_16">
      <!-- yY -->
      <g transform="translate(287.077082 260.972652)rotate(-60)scale(0.1 -0.1)">
       <use xlink:href="#DejaVuSans-121"/>
       <use x="59.179688" xlink:href="#DejaVuSans-89"/>
      </g>
     </g>
    </g>
    <g id="xtick_17">
     <g id="line2d_17">
      <g>
       <use style="stroke:#000000;stroke-width:0.8;" x="302.912216" xlink:href="#mbc55ec9061" y="239.758125"/>
      </g>
     </g>
     <g id="text_17">
      <!-- Yy -->
      <g transform="translate(302.295264 260.972652)rotate(-60)scale(0.1 -0.1)">
       <use xlink:href="#DejaVuSans-89"/>
       <use x="61.083984" xlink:href="#DejaVuSans-121"/>
      </g>
     </g>
    </g>
    <g id="xtick_18">
     <g id="line2d_18">
      <g>
       <use style="stroke:#000000;stroke-width:0.8;" x="318.130398" xlink:href="#mbc55ec9061" y="239.758125"/>
      </g>
     </g>
     <g id="text_18">
      <!-- XI -->
      <g transform="translate(318.070087 259.044393)rotate(-60)scale(0.1 -0.1)">
       <use xlink:href="#DejaVuSans-88"/>
       <use x="68.505859" xlink:href="#DejaVuSans-73"/>
      </g>
     </g>
    </g>
    <g id="xtick_19">
     <g id="line2d_19">
      <g>
       <use style="stroke:#000000;stroke-width:0.8;" x="333.34858" xlink:href="#mbc55ec9061" y="239.758125"/>
      </g>
     </g>
     <g id="text_19">
      <!-- YI -->
      <g transform="translate(333.473815 258.401639)rotate(-60)scale(0.1 -0.1)">
       <use xlink:href="#DejaVuSans-89"/>
       <use x="61.083984" xlink:href="#DejaVuSans-73"/>
      </g>
     </g>
    </g>
    <g id="xtick_20">
     <g id="line2d_20">
      <g>
       <use style="stroke:#000000;stroke-width:0.8;" x="348.566761" xlink:href="#mbc55ec9061" y="239.758125"/>
      </g>
     </g>
     <g id="text_20">
      <!-- xx -->
      <g transform="translate(347.997075 260.808919)rotate(-60)scale(0.1 -0.1)">
       <use xlink:href="#DejaVuSans-120"/>
       <use x="59.179688" xlink:href="#DejaVuSans-120"/>
      </g>
     </g>
    </g>
    <g id="xtick_21">
     <g id="line2d_21">
      <g>
       <use style="stroke:#000000;stroke-width:0.8;" x="363.784943" xlink:href="#mbc55ec9061" y="239.758125"/>
      </g>
     </g>
     <g id="text_21">
      <!-- yy -->
      <g transform="translate(363.215257 260.808919)rotate(-60)scale(0.1 -0.1)">
       <use xlink:href="#DejaVuSans-121"/>
       <use x="59.179688" xlink:href="#DejaVuSans-121"/>
      </g>
     </g>
    </g>
   </g>
   <g id="matplotlib.axis_2">
    <g id="ytick_1">
     <g id="line2d_22">
      <defs>
       <path d="M 0 0 
L -3.5 0 
" id="m95b9676ffe" style="stroke:#000000;stroke-width:0.8;"/>
      </defs>
      <g>
       <use style="stroke:#000000;stroke-width:0.8;" x="44.203125" xlink:href="#m95b9676ffe" y="224.566529"/>
      </g>
     </g>
     <g id="text_22">
      <!-- 0.0 -->
      <g transform="translate(21.3 228.365747)scale(0.1 -0.1)">
       <defs>
        <path d="M 31.78125 66.40625 
Q 24.171875 66.40625 20.328125 58.90625 
Q 16.5 51.421875 16.5 36.375 
Q 16.5 21.390625 20.328125 13.890625 
Q 24.171875 6.390625 31.78125 6.390625 
Q 39.453125 6.390625 43.28125 13.890625 
Q 47.125 21.390625 47.125 36.375 
Q 47.125 51.421875 43.28125 58.90625 
Q 39.453125 66.40625 31.78125 66.40625 
z
M 31.78125 74.21875 
Q 44.046875 74.21875 50.515625 64.515625 
Q 56.984375 54.828125 56.984375 36.375 
Q 56.984375 17.96875 50.515625 8.265625 
Q 44.046875 -1.421875 31.78125 -1.421875 
Q 19.53125 -1.421875 13.0625 8.265625 
Q 6.59375 17.96875 6.59375 36.375 
Q 6.59375 54.828125 13.0625 64.515625 
Q 19.53125 74.21875 31.78125 74.21875 
z
" id="DejaVuSans-48"/>
        <path d="M 10.6875 12.40625 
L 21 12.40625 
L 21 0 
L 10.6875 0 
z
" id="DejaVuSans-46"/>
       </defs>
       <use xlink:href="#DejaVuSans-48"/>
       <use x="63.623047" xlink:href="#DejaVuSans-46"/>
       <use x="95.410156" xlink:href="#DejaVuSans-48"/>
      </g>
     </g>
    </g>
    <g id="ytick_2">
     <g id="line2d_23">
      <g>
       <use style="stroke:#000000;stroke-width:0.8;" x="44.203125" xlink:href="#m95b9676ffe" y="186.986397"/>
      </g>
     </g>
     <g id="text_23">
      <!-- 0.2 -->
      <g transform="translate(21.3 190.785616)scale(0.1 -0.1)">
       <defs>
        <path d="M 19.1875 8.296875 
L 53.609375 8.296875 
L 53.609375 0 
L 7.328125 0 
L 7.328125 8.296875 
Q 12.9375 14.109375 22.625 23.890625 
Q 32.328125 33.6875 34.8125 36.53125 
Q 39.546875 41.84375 41.421875 45.53125 
Q 43.3125 49.21875 43.3125 52.78125 
Q 43.3125 58.59375 39.234375 62.25 
Q 35.15625 65.921875 28.609375 65.921875 
Q 23.96875 65.921875 18.8125 64.3125 
Q 13.671875 62.703125 7.8125 59.421875 
L 7.8125 69.390625 
Q 13.765625 71.78125 18.9375 73 
Q 24.125 74.21875 28.421875 74.21875 
Q 39.75 74.21875 46.484375 68.546875 
Q 53.21875 62.890625 53.21875 53.421875 
Q 53.21875 48.921875 51.53125 44.890625 
Q 49.859375 40.875 45.40625 35.40625 
Q 44.1875 33.984375 37.640625 27.21875 
Q 31.109375 20.453125 19.1875 8.296875 
z
" id="DejaVuSans-50"/>
       </defs>
       <use xlink:href="#DejaVuSans-48"/>
       <use x="63.623047" xlink:href="#DejaVuSans-46"/>
       <use x="95.410156" xlink:href="#DejaVuSans-50"/>
      </g>
     </g>
    </g>
    <g id="ytick_3">
     <g id="line2d_24">
      <g>
       <use style="stroke:#000000;stroke-width:0.8;" x="44.203125" xlink:href="#m95b9676ffe" y="149.406266"/>
      </g>
     </g>
     <g id="text_24">
      <!-- 0.4 -->
      <g transform="translate(21.3 153.205485)scale(0.1 -0.1)">
       <defs>
        <path d="M 37.796875 64.3125 
L 12.890625 25.390625 
L 37.796875 25.390625 
z
M 35.203125 72.90625 
L 47.609375 72.90625 
L 47.609375 25.390625 
L 58.015625 25.390625 
L 58.015625 17.1875 
L 47.609375 17.1875 
L 47.609375 0 
L 37.796875 0 
L 37.796875 17.1875 
L 4.890625 17.1875 
L 4.890625 26.703125 
z
" id="DejaVuSans-52"/>
       </defs>
       <use xlink:href="#DejaVuSans-48"/>
       <use x="63.623047" xlink:href="#DejaVuSans-46"/>
       <use x="95.410156" xlink:href="#DejaVuSans-52"/>
      </g>
     </g>
    </g>
    <g id="ytick_4">
     <g id="line2d_25">
      <g>
       <use style="stroke:#000000;stroke-width:0.8;" x="44.203125" xlink:href="#m95b9676ffe" y="111.826135"/>
      </g>
     </g>
     <g id="text_25">
      <!-- 0.6 -->
      <g transform="translate(21.3 115.625354)scale(0.1 -0.1)">
       <defs>
        <path d="M 33.015625 40.375 
Q 26.375 40.375 22.484375 35.828125 
Q 18.609375 31.296875 18.609375 23.390625 
Q 18.609375 15.53125 22.484375 10.953125 
Q 26.375 6.390625 33.015625 6.390625 
Q 39.65625 6.390625 43.53125 10.953125 
Q 47.40625 15.53125 47.40625 23.390625 
Q 47.40625 31.296875 43.53125 35.828125 
Q 39.65625 40.375 33.015625 40.375 
z
M 52.59375 71.296875 
L 52.59375 62.3125 
Q 48.875 64.0625 45.09375 64.984375 
Q 41.3125 65.921875 37.59375 65.921875 
Q 27.828125 65.921875 22.671875 59.328125 
Q 17.53125 52.734375 16.796875 39.40625 
Q 19.671875 43.65625 24.015625 45.921875 
Q 28.375 48.1875 33.59375 48.1875 
Q 44.578125 48.1875 50.953125 41.515625 
Q 57.328125 34.859375 57.328125 23.390625 
Q 57.328125 12.15625 50.6875 5.359375 
Q 44.046875 -1.421875 33.015625 -1.421875 
Q 20.359375 -1.421875 13.671875 8.265625 
Q 6.984375 17.96875 6.984375 36.375 
Q 6.984375 53.65625 15.1875 63.9375 
Q 23.390625 74.21875 37.203125 74.21875 
Q 40.921875 74.21875 44.703125 73.484375 
Q 48.484375 72.75 52.59375 71.296875 
z
" id="DejaVuSans-54"/>
       </defs>
       <use xlink:href="#DejaVuSans-48"/>
       <use x="63.623047" xlink:href="#DejaVuSans-46"/>
       <use x="95.410156" xlink:href="#DejaVuSans-54"/>
      </g>
     </g>
    </g>
    <g id="ytick_5">
     <g id="line2d_26">
      <g>
       <use style="stroke:#000000;stroke-width:0.8;" x="44.203125" xlink:href="#m95b9676ffe" y="74.246004"/>
      </g>
     </g>
     <g id="text_26">
      <!-- 0.8 -->
      <g transform="translate(21.3 78.045222)scale(0.1 -0.1)">
       <defs>
        <path d="M 31.78125 34.625 
Q 24.75 34.625 20.71875 30.859375 
Q 16.703125 27.09375 16.703125 20.515625 
Q 16.703125 13.921875 20.71875 10.15625 
Q 24.75 6.390625 31.78125 6.390625 
Q 38.8125 6.390625 42.859375 10.171875 
Q 46.921875 13.96875 46.921875 20.515625 
Q 46.921875 27.09375 42.890625 30.859375 
Q 38.875 34.625 31.78125 34.625 
z
M 21.921875 38.8125 
Q 15.578125 40.375 12.03125 44.71875 
Q 8.5 49.078125 8.5 55.328125 
Q 8.5 64.0625 14.71875 69.140625 
Q 20.953125 74.21875 31.78125 74.21875 
Q 42.671875 74.21875 48.875 69.140625 
Q 55.078125 64.0625 55.078125 55.328125 
Q 55.078125 49.078125 51.53125 44.71875 
Q 48 40.375 41.703125 38.8125 
Q 48.828125 37.15625 52.796875 32.3125 
Q 56.78125 27.484375 56.78125 20.515625 
Q 56.78125 9.90625 50.3125 4.234375 
Q 43.84375 -1.421875 31.78125 -1.421875 
Q 19.734375 -1.421875 13.25 4.234375 
Q 6.78125 9.90625 6.78125 20.515625 
Q 6.78125 27.484375 10.78125 32.3125 
Q 14.796875 37.15625 21.921875 38.8125 
z
M 18.3125 54.390625 
Q 18.3125 48.734375 21.84375 45.5625 
Q 25.390625 42.390625 31.78125 42.390625 
Q 38.140625 42.390625 41.71875 45.5625 
Q 45.3125 48.734375 45.3125 54.390625 
Q 45.3125 60.0625 41.71875 63.234375 
Q 38.140625 66.40625 31.78125 66.40625 
Q 25.390625 66.40625 21.84375 63.234375 
Q 18.3125 60.0625 18.3125 54.390625 
z
" id="DejaVuSans-56"/>
       </defs>
       <use xlink:href="#DejaVuSans-48"/>
       <use x="63.623047" xlink:href="#DejaVuSans-46"/>
       <use x="95.410156" xlink:href="#DejaVuSans-56"/>
      </g>
     </g>
    </g>
    <g id="ytick_6">
     <g id="line2d_27">
      <g>
       <use style="stroke:#000000;stroke-width:0.8;" x="44.203125" xlink:href="#m95b9676ffe" y="36.665872"/>
      </g>
     </g>
     <g id="text_27">
      <!-- 1.0 -->
      <g transform="translate(21.3 40.465091)scale(0.1 -0.1)">
       <defs>
        <path d="M 12.40625 8.296875 
L 28.515625 8.296875 
L 28.515625 63.921875 
L 10.984375 60.40625 
L 10.984375 69.390625 
L 28.421875 72.90625 
L 38.28125 72.90625 
L 38.28125 8.296875 
L 54.390625 8.296875 
L 54.390625 0 
L 12.40625 0 
z
" id="DejaVuSans-49"/>
       </defs>
       <use xlink:href="#DejaVuSans-49"/>
       <use x="63.623047" xlink:href="#DejaVuSans-46"/>
       <use x="95.410156" xlink:href="#DejaVuSans-48"/>
      </g>
     </g>
    </g>
    <g id="text_28">
     <!-- $F$ $|1 \rangle$ -->
     <g transform="translate(14.9 142.338125)rotate(-90)scale(0.1 -0.1)">
      <defs>
       <path d="M 16.890625 72.90625 
L 58.6875 72.90625 
L 57.078125 64.59375 
L 25.09375 64.59375 
L 20.90625 43.109375 
L 49.8125 43.109375 
L 48.1875 34.8125 
L 19.28125 34.8125 
L 12.5 0 
L 2.6875 0 
z
" id="DejaVuSans-Oblique-70"/>
       <path id="DejaVuSans-32"/>
       <path d="M 21 76.421875 
L 21 -23.578125 
L 12.703125 -23.578125 
L 12.703125 76.421875 
z
" id="DejaVuSans-124"/>
       <path d="M 30.078125 31.34375 
L 16.3125 -13.1875 
L 8.015625 -13.1875 
L 21.78125 31.34375 
L 8.015625 75.875 
L 16.3125 75.875 
z
" id="DejaVuSans-10217"/>
      </defs>
      <use transform="translate(0 0.578125)" xlink:href="#DejaVuSans-Oblique-70"/>
      <use transform="translate(57.519531 0.578125)" xlink:href="#DejaVuSans-32"/>
      <use transform="translate(89.306641 0.578125)" xlink:href="#DejaVuSans-124"/>
      <use transform="translate(122.998047 0.578125)" xlink:href="#DejaVuSans-49"/>
      <use transform="translate(186.621094 0.578125)" xlink:href="#DejaVuSans-10217"/>
     </g>
    </g>
   </g>
   <g id="line2d_28">
    <path clip-path="url(#p2d56cafde5)" d="M 59.421307 223.92171 
L 59.421307 225.211348 
L 74.639489 225.856507 
L 74.639489 223.090089 
L 89.85767 222.111844 
L 89.85767 222.803902 
L 105.075852 221.751641 
L 105.075852 223.776658 
L 120.294034 218.166246 
L 120.294034 229.874489 
L 135.512216 130.066346 
L 135.512216 137.103642 
L 150.730398 136.550153 
L 150.730398 137.346245 
L 165.94858 149.152519 
L 165.94858 153.137325 
L 181.166761 121.671202 
L 181.166761 120.967266 
L 196.384943 138.345429 
L 196.384943 137.720423 
L 211.603125 127.631969 
L 211.603125 131.643094 
L 226.821307 135.2101 
L 226.821307 130.884519 
L 242.039489 132.930676 
L 242.039489 137.960224 
L 257.25767 136.457422 
L 257.25767 127.943033 
L 272.475852 132.959663 
L 272.475852 137.64871 
L 287.694034 123.005579 
L 287.694034 126.184787 
L 302.912216 140.876027 
L 302.912216 130.399624 
L 318.130398 42.759019 
L 318.130398 33.488226 
L 333.34858 38.214482 
L 333.34858 32.201761 
L 348.566761 44.079036 
L 348.566761 44.068958 
L 363.784943 36.897363 
L 363.784943 34.63859 
" style="fill:none;stroke:#1f77b4;stroke-linecap:square;stroke-width:1.5;"/>
    <defs>
     <path d="M 0 3 
C 0.795609 3 1.55874 2.683901 2.12132 2.12132 
C 2.683901 1.55874 3 0.795609 3 0 
C 3 -0.795609 2.683901 -1.55874 2.12132 -2.12132 
C 1.55874 -2.683901 0.795609 -3 0 -3 
C -0.795609 -3 -1.55874 -2.683901 -2.12132 -2.12132 
C -2.683901 -1.55874 -3 -0.795609 -3 0 
C -3 0.795609 -2.683901 1.55874 -2.12132 2.12132 
C -1.55874 2.683901 -0.795609 3 0 3 
z
" id="maa468dbaa8" style="stroke:#1f77b4;"/>
    </defs>
    <g clip-path="url(#p2d56cafde5)">
     <use style="fill:#1f77b4;stroke:#1f77b4;" x="59.421307" xlink:href="#maa468dbaa8" y="223.92171"/>
     <use style="fill:#1f77b4;stroke:#1f77b4;" x="59.421307" xlink:href="#maa468dbaa8" y="225.211348"/>
     <use style="fill:#1f77b4;stroke:#1f77b4;" x="74.639489" xlink:href="#maa468dbaa8" y="225.856507"/>
     <use style="fill:#1f77b4;stroke:#1f77b4;" x="74.639489" xlink:href="#maa468dbaa8" y="223.090089"/>
     <use style="fill:#1f77b4;stroke:#1f77b4;" x="89.85767" xlink:href="#maa468dbaa8" y="222.111844"/>
     <use style="fill:#1f77b4;stroke:#1f77b4;" x="89.85767" xlink:href="#maa468dbaa8" y="222.803902"/>
     <use style="fill:#1f77b4;stroke:#1f77b4;" x="105.075852" xlink:href="#maa468dbaa8" y="221.751641"/>
     <use style="fill:#1f77b4;stroke:#1f77b4;" x="105.075852" xlink:href="#maa468dbaa8" y="223.776658"/>
     <use style="fill:#1f77b4;stroke:#1f77b4;" x="120.294034" xlink:href="#maa468dbaa8" y="218.166246"/>
     <use style="fill:#1f77b4;stroke:#1f77b4;" x="120.294034" xlink:href="#maa468dbaa8" y="229.874489"/>
     <use style="fill:#1f77b4;stroke:#1f77b4;" x="135.512216" xlink:href="#maa468dbaa8" y="130.066346"/>
     <use style="fill:#1f77b4;stroke:#1f77b4;" x="135.512216" xlink:href="#maa468dbaa8" y="137.103642"/>
     <use style="fill:#1f77b4;stroke:#1f77b4;" x="150.730398" xlink:href="#maa468dbaa8" y="136.550153"/>
     <use style="fill:#1f77b4;stroke:#1f77b4;" x="150.730398" xlink:href="#maa468dbaa8" y="137.346245"/>
     <use style="fill:#1f77b4;stroke:#1f77b4;" x="165.94858" xlink:href="#maa468dbaa8" y="149.152519"/>
     <use style="fill:#1f77b4;stroke:#1f77b4;" x="165.94858" xlink:href="#maa468dbaa8" y="153.137325"/>
     <use style="fill:#1f77b4;stroke:#1f77b4;" x="181.166761" xlink:href="#maa468dbaa8" y="121.671202"/>
     <use style="fill:#1f77b4;stroke:#1f77b4;" x="181.166761" xlink:href="#maa468dbaa8" y="120.967266"/>
     <use style="fill:#1f77b4;stroke:#1f77b4;" x="196.384943" xlink:href="#maa468dbaa8" y="138.345429"/>
     <use style="fill:#1f77b4;stroke:#1f77b4;" x="196.384943" xlink:href="#maa468dbaa8" y="137.720423"/>
     <use style="fill:#1f77b4;stroke:#1f77b4;" x="211.603125" xlink:href="#maa468dbaa8" y="127.631969"/>
     <use style="fill:#1f77b4;stroke:#1f77b4;" x="211.603125" xlink:href="#maa468dbaa8" y="131.643094"/>
     <use style="fill:#1f77b4;stroke:#1f77b4;" x="226.821307" xlink:href="#maa468dbaa8" y="135.2101"/>
     <use style="fill:#1f77b4;stroke:#1f77b4;" x="226.821307" xlink:href="#maa468dbaa8" y="130.884519"/>
     <use style="fill:#1f77b4;stroke:#1f77b4;" x="242.039489" xlink:href="#maa468dbaa8" y="132.930676"/>
     <use style="fill:#1f77b4;stroke:#1f77b4;" x="242.039489" xlink:href="#maa468dbaa8" y="137.960224"/>
     <use style="fill:#1f77b4;stroke:#1f77b4;" x="257.25767" xlink:href="#maa468dbaa8" y="136.457422"/>
     <use style="fill:#1f77b4;stroke:#1f77b4;" x="257.25767" xlink:href="#maa468dbaa8" y="127.943033"/>
     <use style="fill:#1f77b4;stroke:#1f77b4;" x="272.475852" xlink:href="#maa468dbaa8" y="132.959663"/>
     <use style="fill:#1f77b4;stroke:#1f77b4;" x="272.475852" xlink:href="#maa468dbaa8" y="137.64871"/>
     <use style="fill:#1f77b4;stroke:#1f77b4;" x="287.694034" xlink:href="#maa468dbaa8" y="123.005579"/>
     <use style="fill:#1f77b4;stroke:#1f77b4;" x="287.694034" xlink:href="#maa468dbaa8" y="126.184787"/>
     <use style="fill:#1f77b4;stroke:#1f77b4;" x="302.912216" xlink:href="#maa468dbaa8" y="140.876027"/>
     <use style="fill:#1f77b4;stroke:#1f77b4;" x="302.912216" xlink:href="#maa468dbaa8" y="130.399624"/>
     <use style="fill:#1f77b4;stroke:#1f77b4;" x="318.130398" xlink:href="#maa468dbaa8" y="42.759019"/>
     <use style="fill:#1f77b4;stroke:#1f77b4;" x="318.130398" xlink:href="#maa468dbaa8" y="33.488226"/>
     <use style="fill:#1f77b4;stroke:#1f77b4;" x="333.34858" xlink:href="#maa468dbaa8" y="38.214482"/>
     <use style="fill:#1f77b4;stroke:#1f77b4;" x="333.34858" xlink:href="#maa468dbaa8" y="32.201761"/>
     <use style="fill:#1f77b4;stroke:#1f77b4;" x="348.566761" xlink:href="#maa468dbaa8" y="44.079036"/>
     <use style="fill:#1f77b4;stroke:#1f77b4;" x="348.566761" xlink:href="#maa468dbaa8" y="44.068958"/>
     <use style="fill:#1f77b4;stroke:#1f77b4;" x="363.784943" xlink:href="#maa468dbaa8" y="36.897363"/>
     <use style="fill:#1f77b4;stroke:#1f77b4;" x="363.784943" xlink:href="#maa468dbaa8" y="34.63859"/>
    </g>
   </g>
   <g id="line2d_29">
    <path clip-path="url(#p2d56cafde5)" d="M 59.421307 224.566529 
L 59.421307 224.566529 
L 74.639489 224.566529 
L 74.639489 224.566529 
L 89.85767 224.566529 
L 89.85767 224.566529 
L 105.075852 224.566529 
L 105.075852 224.566529 
L 120.294034 224.566529 
L 120.294034 224.566529 
L 135.512216 130.6162 
L 135.512216 130.6162 
L 150.730398 130.6162 
L 150.730398 130.6162 
L 165.94858 130.6162 
L 165.94858 130.6162 
L 181.166761 130.6162 
L 181.166761 130.6162 
L 196.384943 130.6162 
L 196.384943 130.6162 
L 211.603125 130.6162 
L 211.603125 130.6162 
L 226.821307 130.6162 
L 226.821307 130.6162 
L 242.039489 130.6162 
L 242.039489 130.6162 
L 257.25767 130.6162 
L 257.25767 130.6162 
L 272.475852 130.6162 
L 272.475852 130.6162 
L 287.694034 130.6162 
L 287.694034 130.6162 
L 302.912216 130.6162 
L 302.912216 130.6162 
L 318.130398 36.665872 
L 318.130398 36.665872 
L 333.34858 36.665872 
L 333.34858 36.665872 
L 348.566761 36.665872 
L 348.566761 36.665872 
L 363.784943 36.665872 
L 363.784943 36.665872 
" style="fill:none;stroke:#ff7f0e;stroke-linecap:square;stroke-width:1.5;"/>
   </g>
   <g id="patch_3">
    <path d="M 44.203125 239.758125 
L 44.203125 22.318125 
" style="fill:none;stroke:#000000;stroke-linecap:square;stroke-linejoin:miter;stroke-width:0.8;"/>
   </g>
   <g id="patch_4">
    <path d="M 379.003125 239.758125 
L 379.003125 22.318125 
" style="fill:none;stroke:#000000;stroke-linecap:square;stroke-linejoin:miter;stroke-width:0.8;"/>
   </g>
   <g id="patch_5">
    <path d="M 44.203125 239.758125 
L 379.003125 239.758125 
" style="fill:none;stroke:#000000;stroke-linecap:square;stroke-linejoin:miter;stroke-width:0.8;"/>
   </g>
   <g id="patch_6">
    <path d="M 44.203125 22.318125 
L 379.003125 22.318125 
" style="fill:none;stroke:#000000;stroke-linecap:square;stroke-linejoin:miter;stroke-width:0.8;"/>
   </g>
   <g id="text_29">
    <!-- Deviation: 0.02649 -->
    <g transform="translate(74.639489 36.665872)scale(0.11 -0.11)">
     <defs>
      <path d="M 19.671875 64.796875 
L 19.671875 8.109375 
L 31.59375 8.109375 
Q 46.6875 8.109375 53.6875 14.9375 
Q 60.6875 21.78125 60.6875 36.53125 
Q 60.6875 51.171875 53.6875 57.984375 
Q 46.6875 64.796875 31.59375 64.796875 
z
M 9.8125 72.90625 
L 30.078125 72.90625 
Q 51.265625 72.90625 61.171875 64.09375 
Q 71.09375 55.28125 71.09375 36.53125 
Q 71.09375 17.671875 61.125 8.828125 
Q 51.171875 0 30.078125 0 
L 9.8125 0 
z
" id="DejaVuSans-68"/>
      <path d="M 56.203125 29.59375 
L 56.203125 25.203125 
L 14.890625 25.203125 
Q 15.484375 15.921875 20.484375 11.0625 
Q 25.484375 6.203125 34.421875 6.203125 
Q 39.59375 6.203125 44.453125 7.46875 
Q 49.3125 8.734375 54.109375 11.28125 
L 54.109375 2.78125 
Q 49.265625 0.734375 44.1875 -0.34375 
Q 39.109375 -1.421875 33.890625 -1.421875 
Q 20.796875 -1.421875 13.15625 6.1875 
Q 5.515625 13.8125 5.515625 26.8125 
Q 5.515625 40.234375 12.765625 48.109375 
Q 20.015625 56 32.328125 56 
Q 43.359375 56 49.78125 48.890625 
Q 56.203125 41.796875 56.203125 29.59375 
z
M 47.21875 32.234375 
Q 47.125 39.59375 43.09375 43.984375 
Q 39.0625 48.390625 32.421875 48.390625 
Q 24.90625 48.390625 20.390625 44.140625 
Q 15.875 39.890625 15.1875 32.171875 
z
" id="DejaVuSans-101"/>
      <path d="M 2.984375 54.6875 
L 12.5 54.6875 
L 29.59375 8.796875 
L 46.6875 54.6875 
L 56.203125 54.6875 
L 35.6875 0 
L 23.484375 0 
z
" id="DejaVuSans-118"/>
      <path d="M 9.421875 54.6875 
L 18.40625 54.6875 
L 18.40625 0 
L 9.421875 0 
z
M 9.421875 75.984375 
L 18.40625 75.984375 
L 18.40625 64.59375 
L 9.421875 64.59375 
z
" id="DejaVuSans-105"/>
      <path d="M 34.28125 27.484375 
Q 23.390625 27.484375 19.1875 25 
Q 14.984375 22.515625 14.984375 16.5 
Q 14.984375 11.71875 18.140625 8.90625 
Q 21.296875 6.109375 26.703125 6.109375 
Q 34.1875 6.109375 38.703125 11.40625 
Q 43.21875 16.703125 43.21875 25.484375 
L 43.21875 27.484375 
z
M 52.203125 31.203125 
L 52.203125 0 
L 43.21875 0 
L 43.21875 8.296875 
Q 40.140625 3.328125 35.546875 0.953125 
Q 30.953125 -1.421875 24.3125 -1.421875 
Q 15.921875 -1.421875 10.953125 3.296875 
Q 6 8.015625 6 15.921875 
Q 6 25.140625 12.171875 29.828125 
Q 18.359375 34.515625 30.609375 34.515625 
L 43.21875 34.515625 
L 43.21875 35.40625 
Q 43.21875 41.609375 39.140625 45 
Q 35.0625 48.390625 27.6875 48.390625 
Q 23 48.390625 18.546875 47.265625 
Q 14.109375 46.140625 10.015625 43.890625 
L 10.015625 52.203125 
Q 14.9375 54.109375 19.578125 55.046875 
Q 24.21875 56 28.609375 56 
Q 40.484375 56 46.34375 49.84375 
Q 52.203125 43.703125 52.203125 31.203125 
z
" id="DejaVuSans-97"/>
      <path d="M 18.3125 70.21875 
L 18.3125 54.6875 
L 36.8125 54.6875 
L 36.8125 47.703125 
L 18.3125 47.703125 
L 18.3125 18.015625 
Q 18.3125 11.328125 20.140625 9.421875 
Q 21.96875 7.515625 27.59375 7.515625 
L 36.8125 7.515625 
L 36.8125 0 
L 27.59375 0 
Q 17.1875 0 13.234375 3.875 
Q 9.28125 7.765625 9.28125 18.015625 
L 9.28125 47.703125 
L 2.6875 47.703125 
L 2.6875 54.6875 
L 9.28125 54.6875 
L 9.28125 70.21875 
z
" id="DejaVuSans-116"/>
      <path d="M 30.609375 48.390625 
Q 23.390625 48.390625 19.1875 42.75 
Q 14.984375 37.109375 14.984375 27.296875 
Q 14.984375 17.484375 19.15625 11.84375 
Q 23.34375 6.203125 30.609375 6.203125 
Q 37.796875 6.203125 41.984375 11.859375 
Q 46.1875 17.53125 46.1875 27.296875 
Q 46.1875 37.015625 41.984375 42.703125 
Q 37.796875 48.390625 30.609375 48.390625 
z
M 30.609375 56 
Q 42.328125 56 49.015625 48.375 
Q 55.71875 40.765625 55.71875 27.296875 
Q 55.71875 13.875 49.015625 6.21875 
Q 42.328125 -1.421875 30.609375 -1.421875 
Q 18.84375 -1.421875 12.171875 6.21875 
Q 5.515625 13.875 5.515625 27.296875 
Q 5.515625 40.765625 12.171875 48.375 
Q 18.84375 56 30.609375 56 
z
" id="DejaVuSans-111"/>
      <path d="M 54.890625 33.015625 
L 54.890625 0 
L 45.90625 0 
L 45.90625 32.71875 
Q 45.90625 40.484375 42.875 44.328125 
Q 39.84375 48.1875 33.796875 48.1875 
Q 26.515625 48.1875 22.3125 43.546875 
Q 18.109375 38.921875 18.109375 30.90625 
L 18.109375 0 
L 9.078125 0 
L 9.078125 54.6875 
L 18.109375 54.6875 
L 18.109375 46.1875 
Q 21.34375 51.125 25.703125 53.5625 
Q 30.078125 56 35.796875 56 
Q 45.21875 56 50.046875 50.171875 
Q 54.890625 44.34375 54.890625 33.015625 
z
" id="DejaVuSans-110"/>
      <path d="M 11.71875 12.40625 
L 22.015625 12.40625 
L 22.015625 0 
L 11.71875 0 
z
M 11.71875 51.703125 
L 22.015625 51.703125 
L 22.015625 39.3125 
L 11.71875 39.3125 
z
" id="DejaVuSans-58"/>
      <path d="M 10.984375 1.515625 
L 10.984375 10.5 
Q 14.703125 8.734375 18.5 7.8125 
Q 22.3125 6.890625 25.984375 6.890625 
Q 35.75 6.890625 40.890625 13.453125 
Q 46.046875 20.015625 46.78125 33.40625 
Q 43.953125 29.203125 39.59375 26.953125 
Q 35.25 24.703125 29.984375 24.703125 
Q 19.046875 24.703125 12.671875 31.3125 
Q 6.296875 37.9375 6.296875 49.421875 
Q 6.296875 60.640625 12.9375 67.421875 
Q 19.578125 74.21875 30.609375 74.21875 
Q 43.265625 74.21875 49.921875 64.515625 
Q 56.59375 54.828125 56.59375 36.375 
Q 56.59375 19.140625 48.40625 8.859375 
Q 40.234375 -1.421875 26.421875 -1.421875 
Q 22.703125 -1.421875 18.890625 -0.6875 
Q 15.09375 0.046875 10.984375 1.515625 
z
M 30.609375 32.421875 
Q 37.25 32.421875 41.125 36.953125 
Q 45.015625 41.5 45.015625 49.421875 
Q 45.015625 57.28125 41.125 61.84375 
Q 37.25 66.40625 30.609375 66.40625 
Q 23.96875 66.40625 20.09375 61.84375 
Q 16.21875 57.28125 16.21875 49.421875 
Q 16.21875 41.5 20.09375 36.953125 
Q 23.96875 32.421875 30.609375 32.421875 
z
" id="DejaVuSans-57"/>
     </defs>
     <use xlink:href="#DejaVuSans-68"/>
     <use x="77.001953" xlink:href="#DejaVuSans-101"/>
     <use x="138.525391" xlink:href="#DejaVuSans-118"/>
     <use x="197.705078" xlink:href="#DejaVuSans-105"/>
     <use x="225.488281" xlink:href="#DejaVuSans-97"/>
     <use x="286.767578" xlink:href="#DejaVuSans-116"/>
     <use x="325.976562" xlink:href="#DejaVuSans-105"/>
     <use x="353.759766" xlink:href="#DejaVuSans-111"/>
     <use x="414.941406" xlink:href="#DejaVuSans-110"/>
     <use x="478.320312" xlink:href="#DejaVuSans-58"/>
     <use x="512.011719" xlink:href="#DejaVuSans-32"/>
     <use x="543.798828" xlink:href="#DejaVuSans-48"/>
     <use x="607.421875" xlink:href="#DejaVuSans-46"/>
     <use x="639.208984" xlink:href="#DejaVuSans-48"/>
     <use x="702.832031" xlink:href="#DejaVuSans-50"/>
     <use x="766.455078" xlink:href="#DejaVuSans-54"/>
     <use x="830.078125" xlink:href="#DejaVuSans-52"/>
     <use x="893.701172" xlink:href="#DejaVuSans-57"/>
    </g>
   </g>
   <g id="text_30">
    <!-- AllXY -->
    <g transform="translate(196.390312 16.318125)scale(0.12 -0.12)">
     <defs>
      <path d="M 34.1875 63.1875 
L 20.796875 26.90625 
L 47.609375 26.90625 
z
M 28.609375 72.90625 
L 39.796875 72.90625 
L 67.578125 0 
L 57.328125 0 
L 50.6875 18.703125 
L 17.828125 18.703125 
L 11.1875 0 
L 0.78125 0 
z
" id="DejaVuSans-65"/>
      <path d="M 9.421875 75.984375 
L 18.40625 75.984375 
L 18.40625 0 
L 9.421875 0 
z
" id="DejaVuSans-108"/>
     </defs>
     <use xlink:href="#DejaVuSans-65"/>
     <use x="68.408203" xlink:href="#DejaVuSans-108"/>
     <use x="96.191406" xlink:href="#DejaVuSans-108"/>
     <use x="123.974609" xlink:href="#DejaVuSans-88"/>
     <use x="192.480469" xlink:href="#DejaVuSans-89"/>
    </g>
   </g>
   <g id="legend_1">
    <g id="patch_7">
     <path d="M 289.942188 234.758125 
L 372.003125 234.758125 
Q 374.003125 234.758125 374.003125 232.758125 
L 374.003125 219.08 
Q 374.003125 217.08 372.003125 217.08 
L 289.942188 217.08 
Q 287.942188 217.08 287.942188 219.08 
L 287.942188 232.758125 
Q 287.942188 234.758125 289.942188 234.758125 
z
" style="fill:#ffffff;opacity:0.8;stroke:#cccccc;stroke-linejoin:miter;"/>
    </g>
    <g id="line2d_30">
     <path d="M 291.942188 225.178438 
L 311.942188 225.178438 
" style="fill:none;stroke:#ff7f0e;stroke-linecap:square;stroke-width:1.5;"/>
    </g>
    <g id="line2d_31"/>
    <g id="text_31">
     <!-- Ideal data -->
     <g transform="translate(319.942188 228.678438)scale(0.1 -0.1)">
      <defs>
       <path d="M 45.40625 46.390625 
L 45.40625 75.984375 
L 54.390625 75.984375 
L 54.390625 0 
L 45.40625 0 
L 45.40625 8.203125 
Q 42.578125 3.328125 38.25 0.953125 
Q 33.9375 -1.421875 27.875 -1.421875 
Q 17.96875 -1.421875 11.734375 6.484375 
Q 5.515625 14.40625 5.515625 27.296875 
Q 5.515625 40.1875 11.734375 48.09375 
Q 17.96875 56 27.875 56 
Q 33.9375 56 38.25 53.625 
Q 42.578125 51.265625 45.40625 46.390625 
z
M 14.796875 27.296875 
Q 14.796875 17.390625 18.875 11.75 
Q 22.953125 6.109375 30.078125 6.109375 
Q 37.203125 6.109375 41.296875 11.75 
Q 45.40625 17.390625 45.40625 27.296875 
Q 45.40625 37.203125 41.296875 42.84375 
Q 37.203125 48.484375 30.078125 48.484375 
Q 22.953125 48.484375 18.875 42.84375 
Q 14.796875 37.203125 14.796875 27.296875 
z
" id="DejaVuSans-100"/>
      </defs>
      <use xlink:href="#DejaVuSans-73"/>
      <use x="29.492188" xlink:href="#DejaVuSans-100"/>
      <use x="92.96875" xlink:href="#DejaVuSans-101"/>
      <use x="154.492188" xlink:href="#DejaVuSans-97"/>
      <use x="215.771484" xlink:href="#DejaVuSans-108"/>
      <use x="243.554688" xlink:href="#DejaVuSans-32"/>
      <use x="275.341797" xlink:href="#DejaVuSans-100"/>
      <use x="338.818359" xlink:href="#DejaVuSans-97"/>
      <use x="400.097656" xlink:href="#DejaVuSans-116"/>
      <use x="439.306641" xlink:href="#DejaVuSans-97"/>
     </g>
    </g>
   </g>
  </g>
 </g>
 <defs>
  <clipPath id="p2d56cafde5">
   <rect height="217.44" width="334.8" x="44.203125" y="22.318125"/>
  </clipPath>
 </defs>
</svg>
